<?xml version="1.0" encoding="utf-8"?>
<!-- Generator: Adobe Illustrator 24.1.2, SVG Export Plug-In . SVG Version: 6.00 Build 0)  -->
<svg version="1.1" id="Layer_1" xmlns="http://www.w3.org/2000/svg" xmlns:xlink="http://www.w3.org/1999/xlink" x="0px" y="0px"
	 viewBox="0 0 97.6 91.9" style="enable-background:new 0 0 97.6 91.9;" xml:space="preserve">
<style type="text/css">
	.st0{fill:#FFFFFF;}
	.st1{fill:#1B469C;}
	.st2{fill:#E82229;}
</style>
<circle class="st0" cx="48.5" cy="45.9" r="45.2"/>
<g transform="translate(0.000000,802.000000) scale(0.100000,-0.100000)">
	<path class="st1" d="M448.6,8013.1c-6.2-0.5-15.1-1.6-19.7-2.4c-4.6-0.6-13.7-2.2-20.3-3.2c-57.8-9.3-121.5-34.4-173.1-68.5
		c-14.7-9.8-37.4-26.6-46.2-34.5c-50.1-44.9-81-84.7-109.7-141.3c-23.7-46.8-38.2-94.2-45.4-149.6c-3.7-27-3.9-76.5-0.5-102.1
		c5.3-41.2,16.5-85.7,28.7-114.8c2.2-5.2,4.7-11.5,5.6-13.9s5.8-12.7,10.9-22.7c13.3-26.6,30.2-54.1,44.4-72.4
		c3.6-4.6,8.7-11.4,11.7-15.2c9.4-12.6,54-55.8,69.5-67.3c55.4-41.6,108.8-67.8,168-82.9c40.1-10.1,70-13.8,112.9-13.9
		c51.9,0,92.6,6.5,142,22.6c31.8,10.4,72.7,29.5,98.9,46.3c2.8,1.8,7.4,4.7,10.1,6.5c20.7,13.3,49.8,36.9,68.7,55.7
		c14.5,14.5,39.3,43,46,53c15,22.2,19.7,29.3,24.7,37.9c8.1,13.6,24.9,46.3,28.5,55.8c1.5,4.2,3.9,10.5,5.3,13.9
		c7.6,19.8,12.9,37.4,18.6,61.5c8,34.1,10.5,57.6,10.8,97.6c0.1,38.3-1.3,52.8-8.2,90c-4.3,22.3-13.7,54-23.3,78.6
		c-13.3,34-43,86.1-62.4,109.7c-37.9,46.2-53.6,61-102.5,96.9c-16.5,12-68.2,39.6-90,47.8c-38,14.3-72,23.6-100.2,27.3
		c-6.2,0.8-14.2,2-17.8,2.5C525.6,8013.6,462.1,8014.4,448.6,8013.1z M514,7992.3c8.1-0.8,15.3-1.9,16.2-2.5
		c0.9-0.5,1.5-3.6,1.5-6.7c0-5.2,4.8-37.2,5.7-38.2c0.1-0.3,5.3,8.9,11.5,20.3c6.1,11.4,11.2,20.8,11.4,21c0.1,0.3,4.6-0.5,9.9-1.5
		c5.2-1.1,12.7-2,16.5-2s7.2-0.5,7.6-1.1c0.4-0.6-0.1-3.2-1.1-5.8c-2.8-6.3-9.6-54.5-9.9-68.2c-0.1-10.7-0.3-11.2-2.8-10.5
		c-1.4,0.4-8,1.4-14.6,2.3c-6.6,0.8-12.2,1.5-12.4,1.8c-0.3,0.1,0.5,3.3,1.5,7c1.1,3.7,3.2,14.6,4.6,24.3s2.9,19.1,3.3,21.1
		c0.9,4.3-7.6-9.9-19.4-32.3l-9.3-17.9l-6.1,0.6c-3.3,0.3-6.2,0.8-6.3,1c-0.5,0.3-7.6,34.2-10.5,50.3c-0.8,4.1-1.6,7.2-1.8,7
		c-0.8-0.6-7.1-44-7.4-49.3l-0.1-5.2l-4.6,0.8c-2.4,0.4-7.6,1-11.4,1.4c-10.7,1.3-10.4,0.9-7.6,8.8c4.9,14.5,13.6,66.3,12.2,73.3
		l-0.8,3.9l4.7-0.9C497.3,7994.3,506.1,7993.2,514,7992.3z M424.4,7979.9c6.1-14.2,19.3-40.7,27.6-55.8c4.2-7.6,7.2-14.3,6.8-15
		c-0.4-0.8-2.7-1.3-4.8-1.3c-2.3,0-8.4-1.1-13.6-2.5s-9.6-2.5-9.6-2.5c-0.1,0-1.4,3.4-2.9,7.7c-1.6,4.2-3.6,7.9-4.4,8.2
		c-0.8,0.3-6.1-0.5-11.5-1.8l-10.1-2.3v-8.5v-8.5l-4.4-0.8c-2.4-0.4-8.1-1.5-12.6-2.5c-4.4-1-8.4-1.5-8.7-1.1
		c-0.4,0.3,0.3,4.7,1.4,9.8c1.8,8.4,6.8,57.1,7.6,72.7l0.3,6.2l10.8,1.6c6,0.8,13.3,2.4,16.5,3.4s6.2,1.8,6.7,1.9
		C420,7989,422.1,7984.8,424.4,7979.9z M324.1,7926.2c-0.5-41.6-0.8-40.5,7.7-36.9c7.2,2.9,17,9.9,18.8,13.1c0.9,1.6,2,2.9,2.5,2.9
		c1,0,6.2-15.9,6.2-18.8c0-0.8-3-2.7-6.6-4.3c-10.8-4.6-46.9-22.6-50.6-25.2c-1.9-1.3-3.8-2.4-4.2-2.4s-0.5,14.7-0.1,32.7
		c0.5,17.9,0.3,35.3-0.3,38.5l-1,6l-10.1-4.9c-5.6-2.8-11.4-6.6-13.1-8.4c-1.6-1.9-3.2-3.2-3.4-2.8c-0.3,0.3-2.3,4.3-4.3,9l-3.9,8.6
		l9.3,4.1c11.2,4.8,47.9,23.3,49.6,25C324.1,7966,324.5,7962.9,324.1,7926.2z M671.8,7949.4c23.6-10.5,31.1-17.5,31.1-28.5
		c0-13.3-11.4-22.8-23.5-19.5l-4.8,1.3l4.7-4.8c10.7-10.9,9.8-23.3-2.7-32.7c-3.9-3-5.7-3.6-13.1-3.6c-9.1,0-6.1-1.3-41.2,17
		c-8.2,4.3-15.3,8.1-15.7,8.5c-0.3,0.3,0.9,2.2,2.8,4.1c6,6.2,31.7,56.9,33.2,65.6c0.5,2.8,1.3,5.5,1.5,6c0.3,0.5,2.9-0.5,5.8-2.4
		C652.9,7958.3,662.8,7953.5,671.8,7949.4z M243.5,7878.3c14.6-18,20.5-24.9,29.5-33.4c3-3,5.3-5.7,5.1-6c-0.4-0.3-4.6-3.3-9.5-6.8
		c-4.8-3.6-10.3-8-11.9-9.8l-2.9-3.2l-2.8,5.3c-3.4,7-31.8,42.1-43,53.5c-4.8,4.8-8.2,9-7.5,9.3c2.3,0.8,17.1,12.4,20.5,16l3,3.4
		l3-5.8C228.8,7897.6,236.1,7887.4,243.5,7878.3z M782.3,7871.7c6.3-5.3,11.5-10.1,11.8-10.7c0.1-0.4-2.8-3.9-6.7-7.7
		c-6.1-6-7-6.5-7.7-4.3c-1.1,3.2-18.4,20.8-20.3,20.8c-0.9,0-3.8-2.7-6.6-6.1l-5.1-6l8.5-7.4c4.6-4.1,9.3-7.9,10.3-8.5
		c1.4-0.9,0.5-2.4-4.4-7.9c-7.5-8-7.9-8.2-8.9-4.9c-0.4,1.4-4.3,5.7-8.5,9.6l-7.9,7l-3.9-3.8c-2-2-4.9-5.5-6.2-7.7l-2.3-3.9l7.4-6.8
		c4.2-3.8,10.1-8.2,13.6-9.8c3.3-1.5,6-3,6-3.4c0-0.9-13.6-11.4-14.6-11.4c-0.5,0-6.7,5.6-13.8,12.3c-7,6.7-17,15.7-22.1,19.9
		l-9.4,7.6l4.9,3.9c5.8,4.7,6.6,5.3,23,23.1c15,16.1,24.9,28.2,27.6,33.5l1.9,3.8l11-10.8C765.8,7886.3,775.9,7877,782.3,7871.7z
		 M520.3,7884.4c86.9-9.3,165.5-52.1,219.6-120c36.5-45.7,59.2-97.6,68.3-156.7c3.9-24.9,3.9-67,0.1-92.6
		c-13.1-86.9-57.4-161.8-126.7-213.9c-96.6-72.8-225.7-86-335.8-34.4c-63.2,29.5-118.7,83.2-150,144.7
		c-16.1,31.7-25.1,58.7-32.2,96.2c-2.7,13.8-2.9,18.9-2.8,53.9c0,36.9,0.1,39.4,3.4,56.4c11.2,56.7,33.1,104.4,67.8,147.7
		c31.6,39.4,77.9,74.4,124.7,94.2C408,7881.8,465.4,7890.3,520.3,7884.4z M174.9,7844.9c18.4-16.4,52.9-41.1,57.3-41.1
		c1,0-1-3.6-4.6-7.9c-3.4-4.4-7.2-9.9-8.6-12c-1.3-2.3-2.9-4.2-3.7-4.2c-0.6,0-14.7,1.6-31.1,3.7s-29.9,3.4-30.2,3.3
		c-0.9-0.8,33.7-25.2,38.8-27.5c5.8-2.7,5.8-4.2,0.4-9.1c-1.4-1.3-4.4-5.2-6.6-8.5l-3.9-6.2l-9.1,8.1c-16.9,15-48.9,38.2-57.1,41.3
		l-3.3,1.3l7.4,9.3c4.1,5.2,8.7,11.4,10.3,13.9c1.5,2.5,3.7,4.7,4.6,4.7c1.4,0,40.2-5.5,48.6-6.8c1.5-0.3,2.7,0,2.5,0.6
		c-0.6,1.9-29,21.3-33.5,23c-2.4,0.8-4.3,1.9-4.3,2.4s2,3.3,4.6,6.3c2.5,3,6.2,8,8.4,11l3.8,5.5l2.9-3.9
		C169.9,7849.9,172.8,7846.7,174.9,7844.9z M827.8,7822.6c0.9-1.6,6-9.8,11.2-18.1c5.2-8.4,12.7-19.8,16.7-25.2
		c3.9-5.6,7.1-10.4,7.1-10.9s-5.3-1.3-11.7-1.8c-12.2-0.9-51.7-5.3-59-6.5c-3-0.5-4.2-1.4-4.2-3.3c0-5.1,11-19.3,17.6-22.7
		c4.1-2,4.3-2.4,2-3.3c-1.4-0.5-5.6-2.3-9.4-3.9c-3.7-1.5-7.2-2.9-7.7-2.9s-6.5,8.7-13.2,19.4c-6.7,10.5-15.3,23.7-19.1,29l-6.8,9.6
		l7.9,0.8c4.3,0.4,15,1.4,23.7,2.2c15.9,1.4,41.1,4.6,44,5.6c2,0.6-7.2,15.9-13.2,21.6l-4.2,4.1l7.4,4.6c3.9,2.5,7.6,4.6,8.1,4.7
		C825.4,7825.4,826.8,7824.1,827.8,7822.6z M93.1,7739.7c2-2.5,2.4-2.7,32.7-13.3c33.4-11.7,37.5-15.2,37.3-31.6
		c-0.3-14.8-10.3-39.6-19-46.8c-8.2-6.8-10-6.6-43,4.2c-16.2,5.3-31.6,9.6-34,9.6c-2.5,0-4.6,0.3-4.6,0.5c0,0.3,1.4,3.6,3,7.2
		c1.8,3.8,4.1,10.7,5.2,15.3l2.2,8.5l6.6-3.7c8.7-4.9,46.8-17.8,52.8-17.8c5.1,0,9,3.2,11.3,9.3c2.2,5.7,1.6,12.9-1,15.3
		c-2.7,2.4-47.4,17.8-55.7,19.1c-4.4,0.8-5.3,1.3-4.7,2.9c2.8,6.7,7,19.5,7,21.2C89.1,7742.3,90.9,7742.2,93.1,7739.7z
		 M884.1,7720.5c1.5-7.1,9-30.3,13.7-42.6c2-5.1,2.9-9,2.2-9.6c-1-0.9-15.3-5.2-17.4-5.2c-0.5,0-0.6,1.3-0.3,2.9
		c0.8,2.9-4.9,24.7-7,26.8c-0.8,0.8-4.2,0.3-8.9-1.1c-4.2-1.3-7.6-2.4-7.6-2.4c0-1.5,6.8-20.8,7.7-21.6c2.4-2.5,0.9-4.2-6.1-6.3
		c-4.1-1.3-8-2.5-8.7-2.9c-0.9-0.3-2,2.5-2.9,6.8c-1.9,9.6-5.2,18.1-7,18c-3.9-0.3-13.9-4.6-15.2-6.5c-1.8-2.9,3.2-18,8.2-25.1
		c2.2-2.9,3.6-5.6,3.2-6.1c-0.9-0.8-11.4-2.7-16.2-2.7c-2.5-0.1-3.6,0.5-3.6,2.2c0,2.9-10.1,35.5-14.5,46c-1.8,4.6-3.3,8.6-3.3,9
		s3.3,1,7.4,1.3c8.4,0.9,59.2,17.4,66.8,21.9c2.8,1.5,5.7,2.9,6.6,3C882.1,7726.5,883.3,7723.8,884.1,7720.5z M114.9,7599.9
		c6.7-0.1,12.3-0.8,12.3-1.3s-4.1-3.7-9-7.1c-4.9-3.3-9.1-6.7-9.5-7.6c-0.3-0.8,1.1-6.2,3.2-12.2c2-6,3.4-10.9,3.3-11.2
		c-0.3-0.3-5.1,2.8-10.7,6.7l-10.4,7.2l-9.5-7.2c-5.3-3.9-9.9-7-10.1-6.6c-0.4,0.3,0.9,4.8,2.7,10.1s3.2,10.7,3.2,12
		c0,1.5-3.2,4.6-8.9,8.5c-4.8,3.4-8.9,6.6-8.9,7.2c0,0.5,5.3,1,11.9,1h11.9l4.2,12.4l4.1,12.3l4.1-12l4.1-12L114.9,7599.9z
		 M880.9,7611.1l3.6-11.3l12.8-0.4l12.8-0.4l-9.8-7.4c-5.3-3.9-9.8-8-9.8-8.9c0-0.8,1.5-6,3.3-11.4s2.9-10.3,2.5-10.7
		c-0.4-0.5-2,0.4-3.7,1.8c-1.5,1.4-5.8,4.6-9.4,7.2l-6.7,4.8l-10.1-7.2c-5.6-3.9-10.1-6.8-10.1-6.3c0,0.4,1.5,6,3.4,12.2
		c2.9,9.9,3.2,11.7,1.6,12.6c-1,0.6-5.6,3.8-10.1,7.2l-8.2,6.1l12.8,0.4l12.7,0.4l3.7,11.3c2,6.3,4.1,11.4,4.4,11.4
		C877.1,7622.5,879,7617.4,880.9,7611.1z M105.6,7516.4l3.6-11.2l12.2-0.4c6.7-0.1,12.2-0.9,12.2-1.5c0-0.8-0.5-1.3-1-1.3
		c-0.6,0-4.2-2.3-8-5.2c-3.8-2.8-7.6-5.6-8.6-6.1c-1.4-0.9-1-3.2,2.3-12.8c2.2-6.6,3.7-12,3.4-12.3c-0.1-0.3-4.7,2.7-10,6.6
		c-5.2,3.8-10,7-10.7,7c-0.5,0-5.2-3.2-10.4-7c-5.2-3.8-9.6-6.7-9.9-6.6c-0.1,0.3,1.4,5.5,3.4,11.7c2.3,7.1,3.2,11.9,2.5,12.7
		s-4.9,3.9-9.4,7.1c-4.6,3-8.4,6-8.4,6.6c0,0.5,5.3,0.9,11.9,0.9h11.9l4.1,12.2c2.3,6.6,4.3,11.8,4.7,11.5
		C101.7,7527.9,103.6,7522.6,105.6,7516.4z M874.8,7515.7l3.4-11l12.7-0.4l12.7-0.4l-10.1-7.4l-10.3-7.2l3.8-11
		c2-6.1,3.6-11.5,3.4-12c-0.3-0.6-4.6,2.2-9.8,6s-9.9,7-10.5,7s-4.9-2.8-9.5-6.3c-11.9-9-12.2-9-7.4,5.1c1.8,5.1,3.2,9.9,3.2,10.7
		s-4.4,4.6-9.9,8.4l-9.8,7l12.6,0.6l12.7,0.6l3.8,11.7c2.2,6.5,4.2,11.4,4.7,10.8C870.9,7527.2,872.8,7521.8,874.8,7515.7z
		 M132.9,7431.9c3-8.4,3.3-10.1,1.8-11.2c-2.9-1.8-3.9-0.8-5.8,5.5c-1.6,6-1.6,6-5.6,4.6c-4.1-1.4-4.2-1.9-1.8-9.4
		c0.6-1.9,0.3-2.9-1.3-3.6c-2.8-1-4.4,0.1-4.4,2.9c0,1.1-0.8,3.2-1.6,4.4c-1.6,2.2-1.9,2.2-5.7,0.3c-2.3-1.1-4.1-2.4-4.1-2.8
		s1.1-2.9,2.5-5.8c2.7-5.6,2.4-7.4-1.3-7.4c-1.8,0-3,2.3-5.7,10.3c-1.9,5.6-3,10.5-2.7,10.9c0.4,0.5,5.5,2.4,11.2,4.4
		s12.4,4.6,15,5.8c2.4,1.3,4.8,2,5.2,1.6C129,7442.1,131,7437.4,132.9,7431.9z M854.4,7439.3c1.8-1.6,3.2-3.9,3.2-5.1
		c0-2.2,2.4-1.8,11.8,1.4l4.8,1.6l-0.9-4.7c-1.1-6.2-1-6.1-5.8-7c-2.3-0.4-5.8-1.3-8-2.2c-3.7-1.4-3.7-1.5-1.4-3.3
		c1.4-1,3.8-1.8,5.3-1.8c3.7,0,4.4-1.4,3.6-6.3c-0.6-2.9-1.4-3.8-2.9-3.4c-9.6,2.7-31.3,9.1-31.7,9.4c-1.1,0.8,5.5,19.1,7.9,21.7
		C843.8,7443.6,850.4,7443.5,854.4,7439.3z M143.2,7403c-0.4-1-3.3-5.7-6.5-10.5c-3-4.9-5.5-9-5.2-9.3s4.3,1.5,9,3.9
		c4.7,2.5,8.9,4.6,9.3,4.6c0.5,0,1.5-1.5,2.4-3.3c1.4-2.9,1.1-3.3-1.9-4.6c-1.9-0.8-8.7-3.9-15.3-7c-6.5-2.9-12.3-5.5-12.8-5.5
		c-0.4,0-1.5,1.4-2.4,3c-1.5,2.8-1.1,4.1,5.5,14.7c4.1,6.5,7,11.9,6.6,12.3c-0.4,0.4-5.1-1.6-10.4-4.6c-5.3-2.9-9.9-5.1-10-4.9
		c-1.8,2.2-3.2,6.6-2.3,7.2c0.5,0.5,3.6,1.9,6.7,3.2c3.2,1.1,9.8,4.2,14.6,6.8l8.9,4.8l2.4-4.7
		C142.9,7406.8,143.7,7403.9,143.2,7403z M832.6,7406.9c-0.1-1-0.9-3.8-1.9-6.1c-1.5-3.8-1.4-4.4,0.8-6.1c3.8-2.8,5.6-2.2,7.2,2.7
		c1.6,4.6,2.9,5.2,6,3.3c1.5-0.9,1.4-1.8-0.3-4.9c-2.8-5.5-2.7-6.1,1.9-7.7c4.9-1.8,5.3-1.4,7.5,5.2c2.2,6.8,1.9,6.6,4.8,4.9
		c2.5-1.3,2.4-1.6-2-12l-4.4-10.5l-8.4,4.1c-4.6,2.3-11.8,5.2-16,6.5s-7.7,2.4-8,2.4c-0.1,0.1,1.3,3.6,3,7.7
		c1.8,4.1,3.8,8.7,4.4,10.4C828.6,7410,833,7410.1,832.6,7406.9z M819.8,7375.1c-1.4-1.1-3.2-3.6-3.8-5.2
		c-2.4-6.5,4.8-13.9,13.8-14.2c4.3-0.1,5.8,0.5,8.4,3.4c1.6,2,3,4.7,3,6.1c0,2.9,1.6,3.2,3.8,0.5c3.6-4.3-6-17.8-13.6-19.1
		c-9-1.6-19.4,4.4-21.8,12.9c-1.4,4.9,1.3,15,4.9,18.9c2.8,3,3,3,5.5,1C822.3,7377.3,822.3,7377.1,819.8,7375.1z M158.6,7373.5
		c3.6-1.8,9.1-10.3,9.1-13.8c0-2.8-5.1-3.7-5.8-1.1c-2.2,6.7-3.2,8-6,7.6c-2.5-0.4-2.8-1.1-3-8.6c-0.1-7.1-0.6-8.6-3.6-11
		c-1.8-1.6-4.3-2.9-5.5-2.9c-3.9,0-10.3,4.9-12.9,10c-3,6.1-3.2,8.5-0.5,9.5c3.4,1.3,4.3,0.9,4.3-2.3c0-1.6,1.1-4.3,2.4-6
		c2-2.5,2.9-2.8,4.8-1.6c1.9,1.1,2.2,2.8,1.9,8.5c-0.4,6.2-0.1,7.5,2.8,10.4C150.3,7375.6,153.7,7376,158.6,7373.5z M177.7,7347.1
		l2.7-4.1l-6-3.4c-3.3-2-9.6-6.3-14.2-9.9l-8.2-6.2l-2.8,3.3c-1.5,1.9-2.8,3.7-2.9,4.1c0,0.4,1.9,1.6,4.2,2.9s8.4,5.6,13.6,9.8
		c5.2,4.1,9.9,7.5,10.4,7.5C174.7,7351.1,176.3,7349.4,177.7,7347.1z M825.9,7332.1c1.6-1,1.6-1.5-0.1-4.6c-2-3.3-2-3.3-16.5-3.2
		l-14.5,0.3l5.2-3.7c2.9-2.2,7.1-4.8,9.5-6c2.4-1.3,4.6-2.4,4.7-2.7c0.3-0.1-0.5-2-1.6-4.1l-2.3-3.7l-8,6.1
		c-4.4,3.3-10.8,7.6-14.1,9.5c-3.4,1.9-6.3,3.7-6.6,3.8c-0.3,0.3,0.9,2.5,2.5,5.1l2.8,4.7l12.6-0.8c6.8-0.4,12.4-0.3,12.4,0.1
		c0,0.5-2.9,2.7-6.5,4.7c-11.3,6.7-10.8,6.2-8.4,9.9l2.2,3.3l12.3-8.9C818.4,7337.2,824.8,7332.8,825.9,7332.1z M190.3,7330.7
		l2.9-3.3l-3.9-11.8c-2-6.6-3.6-12-3.4-12.3c0.3-0.3,3.9,2.8,8.1,6.6l7.6,6.8l2.7-2.8l2.8-2.9l-14.1-11.2
		c-7.7-6.1-14.1-10.9-14.2-10.8c-0.1,0.3-1.3,1.6-2.4,3c-2,2.4-1.9,3.3,2.2,15.9c2.4,7.2,4.2,13.3,3.9,13.6
		c-0.5,0.6-11.9-8.9-15.1-12.6c-2.2-2.5-2.3-2.5-4.7-0.4c-1.4,1.3-2.5,2.9-2.5,3.7c0,0.8,3.3,3.8,7.4,6.7c3.9,3,9.8,8,12.9,11.2
		c3,3.2,6,5.3,6.3,4.7C187.2,7334.4,188.8,7332.5,190.3,7330.7z M780.3,7314.2c0-0.4-1.6-2.3-3.8-4.3c-4.6-4.3-4.7-5.8-1.1-9
		c2.7-2.4,2.7-2.4,6.2,1.8c2.3,2.8,4.1,3.9,5.5,3.3c3-1.1,2.7-3-1.3-7.2l-3.6-3.7l3-2.4c4.1-3.4,6.5-2.7,10.1,3
		c2.4,3.7,3.4,4.3,4.8,3.3c2.9-2.5,1.8-5.3-5.5-13.1l-6.8-7.6l-5.5,5.2c-6.2,6-17.9,15.1-20.2,15.9c-0.9,0.4,1.4,4.1,5.8,9.5
		c6.6,8,7.7,8.9,9.8,7.6C779.3,7315.6,780.3,7314.7,780.3,7314.2z M222.9,7295.3l3.6-3.7l-5.3-9.9c-2.9-5.5-6.5-12.6-8-15.9
		c-1.4-3.4-3-6.1-3.6-6.1c-0.4,0-2.2,1.4-3.8,3.2c-2.7,2.8-2.8,3.4-1.3,7c1.5,3.7,1.4,4.2-1.6,7.4c-3.4,3.3-3.4,3.3-7.4,1
		c-3.7-2.2-3.9-2.2-6.3,0c-3.7,3.3-2.9,4.8,3.7,7.7c3.3,1.5,10,4.9,14.8,7.7c4.9,2.9,9.5,5.2,10.3,5.2
		C218.6,7299.2,220.9,7297.5,222.9,7295.3z M759.5,7293.8c0.5-1.6,3.9-9.1,7.7-16.9l6.7-13.8l-3.6-3.6l-3.6-3.7l-12.3,7.1
		c-6.8,3.9-14.1,7.7-16.1,8.5c-4.7,1.5-4.7,1.9-0.5,6.2l3.4,3.6l5.2-3.6c8-5.3,17.2-10.5,17.2-9.5c0,0.5-2.7,5.8-5.8,11.9
		c-5.7,10.9-5.8,11.2-3.6,13.8C757.3,7297.4,758.3,7297.4,759.5,7293.8z M255.3,7266.2c3.6-6.6-1.4-14.7-9.3-15.5l-4.1-0.4l-0.4-8.6
		l-0.4-8.5l-4.4,3.4c-4.3,3.6-4.4,3.7-3.7,10.7c0.9,8-1,11.2-3.9,6.7c-5.3-7.9-5.1-7.9-8.9-4.2l-3.3,3.4l8.4,10.4
		c4.6,5.7,9.4,12,10.5,13.9l2,3.6l8.1-6.3C250.4,7271.3,254.6,7267.4,255.3,7266.2z M711.5,7245.9c2.8-2.5,3.3-4.8,2.8-11.7
		c-0.1-3,0.6-3.7,7.6-6.2l7.9-2.8l-3-2.4c-4.7-3.7-6.8-3.8-12.3-1c-9.3,4.7-12.2,2.8-6.3-4.2l3.7-4.4l-3.8-2.8
		c-2.2-1.5-4.1-2.7-4.3-2.4c-0.3,0.3-3.8,5.7-8,11.9c-4.2,6.3-8.6,12.3-9.8,13.2c-1.1,0.9-2,2.2-2,2.8c0,0.6,3.8,3.7,8.5,6.8
		C702,7249.1,707.1,7249.9,711.5,7245.9z M737.5,7231.7c0.4-7-1.8-7.4-4.4-0.8c-2.2,4.9-2.2,5.5-0.1,7.6c1.9,2.2,2.3,2.2,3.3,0.4
		C736.8,7237.9,737.4,7234.6,737.5,7231.7z M304.1,7235.6c3.7-2.2,4.4-3.3,3.9-5.5c-1.8-6.1-5.8-26.6-5.8-29.4
		c0-3.6-1.3-3.8-6.5-1.1c-3.3,1.8-3.7,2.5-3,6.2c0.8,3.7,0.4,4.4-3.4,6.8l-4.2,2.8l-2.8-3.2c-2.8-3.2-3-3.2-6.8-1.1l-3.9,2
		l11.2,10.3c6.1,5.7,12,11.4,13.1,12.7C298.1,7238.9,298.6,7238.8,304.1,7235.6z M256.6,7231.9c0-0.8-2.5-2.5-5.7-4.1
		c-4.6-2.3-6-2.5-7.4-1.1c-1.3,1.3-1.1,1.8,0.5,2.7c1.1,0.6,3.4,2.3,5.1,3.7C252.1,7235.5,256.6,7234.9,256.6,7231.9z M679.4,7222.8
		c2.5-5.1,6.5-12,8.5-15.3c2.2-3.3,3.7-6.2,3.4-6.3c-3.3-2.4-7.7-4.8-8.1-4.4c-0.1,0.3-2.4,4.7-5.1,9.8c-2.5,5.2-6.1,11.7-7.7,14.3
		c-1.6,2.7-3,5.2-3,5.7c0,0.8,5.6,4.9,7.1,5.5C674.6,7231.9,676.8,7227.8,679.4,7222.8z M342.6,7215.1c2.5-2.3,2.9-3.7,2.4-7.9
		c-1.3-9.3-9.4-13.1-19.3-9l-4.3,1.9l-1.5-4.7c-2.2-6.7-2-6.7-7-4.4c-2.4,1.1-4.2,2.4-3.9,2.8c2.7,4.8,11.3,24.1,11.9,26.6
		c0.4,1.8,1,3.7,1.3,4.2C322.8,7225.9,339.1,7218.2,342.6,7215.1z M658.3,7217.6c0.4-3.2,0-3.4-3.9-3.4c-9.1,0-14.2-10.1-8.9-17.8
		c3.3-4.8,5.7-6.2,10.3-6.3c5.1,0,6.2,2.3,3.6,7.5c-2,3.8-2,3.9,1.9,5.8c2.2,1.1,4.1,1.9,4.1,1.6c0.1-0.3,1.8-3.4,3.6-7
		c2.4-4.8,2.9-7,1.9-7.9c-3.3-2.7-12.3-6.5-17-7.2c-15.3-2.4-25.4,20.2-13.7,31.1c3,2.9,14.5,7.9,16.6,7.2
		C657.4,7221.2,658,7219.4,658.3,7217.6z M364.4,7208.5c11.3-3.8,15.2-7.1,15.2-12.7c0-4.4-4.8-10.8-8.2-10.8
		c-2.5,0-2.4-2.4,0.5-10.1c2.5-6.8,2.2-7.2-4.3-4.9c-3.4,1.3-4.3,2.5-5.8,8.5c-2.3,8.9-4.3,9.6-6.3,2.5c-0.9-3-1.6-5.6-1.8-5.8
		c-0.4-0.5-8.2,2.5-8.2,3.3c0,0.4,2,6.8,4.4,14.3c2.4,7.6,4.4,15,4.4,16.4s0.1,2.5,0.4,2.5C354.9,7211.7,359.3,7210.3,364.4,7208.5z
		 M621.1,7198.1c2.7-4.1,7.4-10.7,10.4-14.6c2.9-3.9,5.5-7.5,5.5-7.7c0-0.4-2-1.4-4.6-2.2c-4.8-1.6-4.8-1.6-8,3.7
		c-1,1.5-2,1.6-6.3,0.3c-5.1-1.5-5.2-1.6-4.6-5.7c0.8-3.7,0.5-4.3-2.2-4.9c-6.2-1.8-6.1-1.9-6.1,17.4v18.1l4.2,1.4
		C615.9,7205.8,616,7205.7,621.1,7198.1z M404.1,7196.8c9.6-2.3,10.8-3.2,8.6-6.6c-0.9-1.4-1.9-1.4-5.7-0.1
		c-5.8,1.9-7.9,1.1-8.6-3.2c-0.8-3.4-0.5-3.7,5.7-4.9c2.7-0.6,3.4-1.5,3.4-4.1c0-2.7-0.5-3.2-2.2-2.4c-1.3,0.4-3.8,1.1-5.7,1.5
		c-2.9,0.5-3.6,0.1-4.3-2.7c-1.5-6.2,0.3-7.6,10-7.5c2.4,0,2.9-3.4,0.9-5.5s-22.3,3.7-21.7,6c3.6,13.4,6.5,26.6,6.5,29.4
		c0,2.4,0.5,3.4,1.6,3C393.5,7199.5,398.6,7198.1,404.1,7196.8z M432.8,7190.6c0.6-0.6,6.3-14.2,8.1-19.1c0.6-2.3,1.8-4.2,2.2-4.2
		c0.5,0,1.4,4.9,1.9,10.9l0.9,10.8l3.9-0.4c2.9-0.3,3.9-1,3.6-2.3c-0.3-1-1.5-8.8-2.9-17.1c-1.4-8.4-2.7-15.3-2.8-15.5
		c-0.3-0.3-2,0-4.2,0.4c-3.4,0.6-4.4,2-9.4,13.3c-3,6.8-5.7,12.2-6,11.9c-0.3-0.3-1.3-5.6-2-11.7c-1.4-9.9-1.8-11.2-4.1-10.8
		c-5.2,0.8-5.3,1-3.6,9.4c1,4.3,2.2,12.2,2.5,17.1l0.9,9.3l5.2-0.9C430,7191.4,432.5,7190.9,432.8,7190.6z M557.8,7189.3
		c5.3-2,7-13.3,2.4-17.1c-2.7-2.2-2.3-3.2,3.3-9.3c2.8-2.9,4.7-5.8,4.2-6.2c-0.4-0.5-2.8-0.9-5.2-0.9c-3.7,0-5.3,1-8.7,5.1
		c-5.7,6.6-8.4,6.7-7.2,0.4c0.4-2.7,0.9-5.3,1-6c0.3-1.8-8.2-3.3-8.7-1.5c-0.3,0.8-1.3,7.4-2.4,14.7c-1.1,7.4-2.3,14.6-2.8,16.1
		c-0.6,2.4-0.1,2.8,5.5,3.6c3.3,0.5,6.7,1,7.4,1.3C548.4,7190.2,555.5,7190.1,557.8,7189.3z M484.5,7184.9
		c8.9-2.8,12.4-17.6,6.3-26.6c-4.1-6-10.5-8.1-21.6-7c-7.7,0.9-8.5,1.3-7.9,3.4c0.5,1.3,1,9.1,1.3,17.2c0.3,8.2,0.5,15,0.6,15
		C463.8,7187.6,481.6,7185.8,484.5,7184.9z M524.8,7183.8c0-2.9-0.4-3-5.8-2.7c-6.6,0.4-8.1-0.9-7-5.7c0.6-2.5,1.5-3,5.7-3
		c3.8,0,5.1-0.5,5.6-2.4c0.9-3.4,0-3.9-5.7-3.9c-4.7,0-4.8-0.1-4.8-4.3c0-5.1,1-5.7,8.7-4.4c3.2,0.5,6,0.8,6.1,0.6
		c0.1,0-0.1-1.6-0.5-3.6l-0.6-3.6h-11.2h-11l-0.8,15c-0.4,8.1-1.1,16.1-1.5,17.6c-0.9,2.7-0.5,2.8,9.6,3.2
		C525.3,7187.2,524.8,7187.2,524.8,7183.8z M579.9,7158.3c-2.4-5.8-5.1-4.7-5.1,2c0,4.8,0.5,6,2.9,6.8s2.8,0.6,3.2-2
		C581.3,7163.3,580.8,7160.3,579.9,7158.3z"/>
	<path class="st1" d="M403.3,7956.4c-1-10-1.1-24.5-0.3-24.5c2.4,0,13.3,2.9,13.3,3.6c0,0.8-11.4,28.4-12,29.2
		C404.1,7964.8,403.6,7961.1,403.3,7956.4z"/>
	<path class="st1" d="M659.4,7928.4l-4.6-8.6l5.7-2.8c3-1.5,6.6-2.8,7.9-2.8c6.1,0,11.4,9,8.7,14.7c-1,2.5-9.3,8.1-11.9,8.1
		C664.6,7937,662.1,7933.1,659.4,7928.4z"/>
	<path class="st1" d="M643.3,7896.5c-3.7-7.6-3.9-9.1-2.5-10.9c2.5-3.2,8.2-5.7,12.6-5.7c6,0,11.7,8.9,9.6,15.1
		c-0.6,2-12.6,10.3-14.8,10.3C647.9,7905.3,645.8,7901.4,643.3,7896.5z"/>
	<path class="st2" d="M447.6,7856.2c-0.4-2-1-8-1.5-13.3l-0.8-9.8l-5.3-0.8c-10.8-1.8-30.9-7-43.5-11.2l-12.9-4.4l-7.9,10.7l-8,10.7
		l-3.8-2.3c-2.2-1.3-16.1-9.4-31.1-18.1c-14.8-8.6-27.3-16.4-27.6-17.1c-0.3-0.8,1.8-6.1,4.6-11.9l4.9-10.5l-22.3-21.9
		c-12.3-12.2-22.7-22.1-23.2-22.1s-5.8,2.3-11.8,5.1l-10.9,4.9l-12.6-21.2c-22.1-37.5-24.6-42.2-23.5-43.2c0.6-0.5,5.3-4.1,10.4-7.7
		c4.9-3.7,9.1-7.1,9.1-7.5c0-0.5-1.4-4.6-3.2-9c-4.3-10.9-8.1-24.6-11.3-40.6l-2.8-13.3l-13.2-1.5c-7.4-0.8-13.4-1.5-13.6-1.5
		c-0.3-0.1-0.4-17.2-0.4-38v-37.9l8.6-0.9c4.7-0.4,10.8-1.3,13.4-1.6l5.1-0.9l2.9-14.6c1.6-8,5.6-22.2,8.7-31.6
		c3-9.4,5.5-17.1,5.3-17.2c-0.3-0.1-4.8-3.6-10.1-7.5c-5.5-3.9-9.9-7.5-9.9-7.9s8.1-14.6,18.1-31.7c12.8-21.9,18.5-30.8,19.9-30.4
		c1,0.3,3.9,1.4,6.5,2.5l4.7,1.9l15.2-14.5c8.4-8,15.7-14.6,16.4-14.6c0.5,0,9.6,3.7,20.2,8.1c60.9,25.9,113.4,32.7,141.5,18.4
		c2.5-1.3,8.1-6.5,12.4-11.5c8.4-9.9,16.5-16.2,20.9-16.2c4.6,0,14.1,7.2,21.1,16c3.6,4.4,8.9,9.5,11.7,11.3
		c20.5,11.9,61.6,10.1,108.3-4.9c14.2-4.7,40.7-15.1,49.7-19.7l4.7-2.4l8.1,7.7c4.6,4.2,11.7,11,16,15.2l7.7,7.4l5.8-2.8
		c3.3-1.6,6.1-2.7,6.5-2.3c1.4,1.5,36.3,61.2,36.3,62.1c0,0.5-4.4,4.4-9.8,8.5c-5.5,4.1-9.8,8.2-9.6,9.3c0.3,1,2.5,8.4,5.3,16.4
		s6.5,21.4,8.1,29.8l3,15.2l4.9,0.8c2.8,0.5,8.7,1.3,13.6,1.8l8.5,0.9v37.8c0,35-0.1,37.9-2.2,38.5c-1.3,0.3-6.8,1-12.4,1.5
		c-5.6,0.4-10.8,1.4-11.5,2c-0.9,0.6-1.9,3.8-2.4,7.1c-1.4,9.8-6.7,29.9-11.4,43.1c-2.4,6.7-4.4,12.3-4.4,12.4c0,0,4.6,3.4,10.1,7.5
		c5.6,4.1,10.1,8,10.1,8.5c0,0.6-6.7,12.3-14.8,26.1c-8.1,13.7-16.1,27.4-17.9,30.4c-1.6,2.9-3.7,5.3-4.6,5.3c-0.9,0-6-2-11.3-4.4
		s-10.4-4.4-11.4-4.4s-3.3,1.9-5.1,4.2c-4.1,5.2-22.2,23.5-31.6,31.7c-4.1,3.4-7.4,7.1-7.4,8s2,6.2,4.7,11.9
		c2.8,6.1,4.2,10.7,3.4,11.4c-1,1-61.2,36.8-61.9,36.8c-0.1,0-3.7-4.6-7.7-10.1s-8.2-10.1-9.4-10.1c-1,0-8.7,2.3-17.1,4.9
		c-8.5,2.8-21.3,6.2-28.5,7.7c-7.4,1.5-13.7,2.9-14.1,3.2c-0.5,0.4-1.3,4.9-1.8,10.4s-1.3,11.2-1.6,12.8l-0.6,2.8h-37.2h-36.7
		L447.6,7856.2z M510.9,7806.4c73.5-7.7,140.6-48.4,181.1-109.7c9.5-14.5,22.3-40.6,28-57.2c2.4-7,6-20.4,8-29.8
		c3.4-16.2,3.6-18.5,3.6-49.3c-0.1-28.7-0.4-33.9-2.9-45.7c-9.5-44.1-24.7-77-50.9-109.2c-4.1-5.2-9.8-11.5-12.4-14.1l-4.8-4.8
		l-10.1,3.9c-43.1,16.9-89,21.7-117.3,12.3c-11.4-3.8-17.6-8-25.4-17.2c-8.6-10.3-17-16.7-21.8-16.7c-5.5,0-13.7,6.3-22.4,16.9
		c-12.8,15.9-28.4,21.6-59.1,21.6c-26.4,0-50.9-4.7-80-15.5l-13.8-5.1l-4.2,4.1c-17,16.2-38.4,49.3-50.1,77.6
		c-27.3,66.1-22.4,146.2,12.4,210.2c31.7,58,85.7,101.3,148.9,119.3c11.4,3.3,36,8,45.8,8.7C475.5,7807.8,500,7807.5,510.9,7806.4z"
		/>
	<path class="st1" d="M451.1,7794.3c-72.4-10.7-135.9-54.3-172.2-118.3c-11.7-20.7-20.4-44.6-25.7-70.5c-3-14.8-3.4-19.4-3.4-43.2
		c0-20.4,0.5-29.5,2.3-39.3c8.1-44.6,28.7-87.2,56.7-117.8l5.8-6.5l10,3.7c29.3,10.5,53.3,15.2,78.5,15.2c31.1,0,47-5.5,59.7-20.5
		c8.1-9.6,16-16.5,20.4-17.5c6.1-1.5,12.7,3.3,28.5,20.8c11.2,12.4,27.1,17.2,56.2,17.2c25.9-0.1,47.2-4.2,77-14.7l10.9-3.8l4.9,5.3
		c31.2,34.7,52,79.5,58.1,125.9c11.8,90-28.5,177.9-104.6,227.9c-29.7,19.4-65.2,32.6-99.5,36.6
		C499.5,7796.7,465.5,7796.4,451.1,7794.3z M504,7673.7l2.7-2.7l2.9,2.9l3,3h63.2c67.5,0,70.9-0.3,83.1-6.5
		c7.5-3.8,16.5-13.3,20.8-22.1l3.7-7.6l0.4-29l0.4-29.2l-46-46c-38.4-38.4-46.5-46-49.6-46c-5.7,0-18.6,13.3-18.6,19.3
		c0,0.9,18.9,20.4,41.8,43.5l41.8,41.8v18.5c0,17.1-0.3,18.9-2.9,22.7c-1.5,2.4-4.8,5.5-7.2,6.8c-4.3,2.5-6.6,2.7-68.5,3
		c-56.8,0.4-64.3,0.6-66.2,2.4c-2.2,1.9-2.4,1.9-4.1-0.4s-4.2-2.4-39.7-3l-37.8-0.6l-0.3-66.6c-0.3-78,1.3-71-15.7-71
		c-16.5,0-15.1-6.5-15.1,71.9v66.3h-27.9h-27.9v-70.5c0-50.7,0.4-72,1.5-75.6c0.9-3.2,3.2-6.3,6-8.4l4.3-3.4l62.9-0.4
		c59.5-0.3,63.2-0.1,67.3,2c8.5,4.6,9.5,8.1,9.9,34.6l0.5,23.6l38.9,38.8c30.7,30.7,39.6,38.9,42.1,38.9c2.4,0,5.5-2.3,11-8.1
		c4.3-4.4,7.9-9,7.9-10.1c0-2.7-3.3-6.2-39.3-42l-30.6-30.4l0.4-18.6c0.4-20.5,1.1-22.7,9.9-28.5l4.2-2.9h71.3
		c82.2,0,75.2,1.1,76.3-12.9c0.9-10.8-1.5-16.9-7.2-18c-2.3-0.4-33.9-0.8-70.3-0.8c-51.9,0-67.8,0.4-74.4,1.8
		c-9.4,2-16.6,5.3-22.4,10.1l-3.8,3.3l-7.4-4.4c-12.8-7.7-11.5-7.6-83.6-7.6h-65.9l-8.1,3c-10.9,4.2-21.6,14.1-27,25.2l-4.2,8.5
		l-0.3,89.4c-0.3,49.2,0.1,90.2,0.8,91c0.6,1,3,2.3,5.3,2.8c2.4,0.5,45,0.9,94.6,0.8C501.1,7676.4,501.1,7676.4,504,7673.7z"/>
	<path class="st2" d="M318.4,7667.3c-1.4-1.4-1-161.6,0.4-168.9c1.8-9.8,4.8-15.2,12.3-22.6c5.5-5.3,8.5-7.2,15.3-9.3
		c8.2-2.5,11-2.7,72.5-2.3l64,0.4l7.1,3.3c3.9,1.9,9.4,5.5,12.2,8l5.1,4.6l3.9-5.1c2.5-3,7.4-6.5,12.6-9.1l8.6-4.2h71.6h71.6
		l0.4,6.6l0.4,6.6l-70.8,0.4l-70.8,0.4l-5.7,3.2c-3,1.8-7.4,5.6-9.5,8.6l-3.8,5.6l-0.4,22.3l-0.4,22.4l33.7,33.6
		c18.5,18.5,33.6,34.2,33.6,34.9c0,0.8-1.9,3.3-4.3,5.6l-4.4,4.3l-36.5-36.3l-36.5-36.3l-0.6-24c-0.6-23.5-0.6-24-4.2-29.2
		c-1.9-2.9-5.8-6.8-8.7-8.8l-5.3-3.6l-62.8-0.4c-43.1-0.3-64.4,0-67.7,1c-6.1,1.8-12.9,7.9-16.5,14.5c-2.8,5.2-2.8,5.3-2.8,82.6
		v77.4H368h36.3l0.4-68.7l0.3-68.9h7h7v69.1v69.1h39.2c25,0,39.6,0.5,40.1,1.3c0.4,0.8,0.4,3.8-0.1,7l-0.8,5.7h-89
		C359.1,7668.2,318.8,7667.8,318.4,7667.3z"/>
	<path class="st2" d="M515.5,7661.6l0.4-6.7l63.5-0.6l63.5-0.6l6.1-3.8c4.4-2.7,7.1-5.7,9.4-10.1c3-5.8,3.3-7.7,3.7-26.6l0.5-20.3
		l-42-41.8l-42-41.8l5.1-5.1l5.1-5.1l43.9,43.7l43.7,43.7l-0.4,25.4c-0.4,24.9-0.5,25.5-3.9,32.6c-4.4,9-13.9,17.8-23.2,21.2
		c-6.7,2.5-9.5,2.7-70.4,2.7h-63.4L515.5,7661.6z"/>
	<path class="st1" d="M390.4,7368c-26.4-3.3-58.1-12.2-85.8-24.2l-17.2-7.5l-13.3,12.6c-7.4,6.8-14.3,12.4-15.5,12.4s-3.8-0.9-6-2
		l-3.9-2l8.7-8.5c23.6-22.6,33.9-31.8,43.4-38.7l10.4-7.4l11.2,3.4c11.9,3.7,21.4,8.1,27.5,12.7c6.8,5.1,17.4,9.8,29.7,12.9
		c10.4,2.8,15,3.3,31.2,3.3c13.2,0,21.8-0.6,28.3-2c11.3-2.7,26.2-8.6,32.1-13.1c27.3-20.4,81.2-25.4,117.8-10.9
		c8.6,3.4,10.4,4.3,21.3,11.3c3.6,2.4,9.4,5.5,12.9,7l6.2,2.5l6.1-3.6c3.3-2,7.6-4.3,9.6-5.2c1.9-0.9,3.4-1.8,3.4-2.2
		c0-0.3-4.4-1.5-9.8-2.7c-13.6-2.9-24.5-7.5-37.3-15.5c-16-9.9-27.5-13.6-49.6-15.6c-27.6-2.7-53.4,3-72.8,16
		c-19.9,13.2-45.4,19.1-75.3,17.9c-24.3-1.1-43-6.8-61.8-19c-4.9-3.3-9.6-6-10.4-6c-0.6,0-1.5-0.5-1.9-1.1c-1-1.5,7-6.5,10.3-6.5
		c1.3,0,6.8,2.8,12.4,6.3c5.5,3.4,13.4,7.5,17.6,8.9c33,10.9,76.8,7.2,100.1-8.5c32.3-22.1,80.8-26.4,121.1-10.8
		c3.6,1.4,11.2,5.5,16.6,9c5.6,3.6,12.9,7.6,16.5,9c8.2,3.2,29.8,7.6,37.5,7.6c4.9,0,7.2,0.9,12.6,4.7c7.2,5.3,47.7,43.2,47.7,44.6
		c0,0.6-2.4,1.9-5.3,3l-5.3,2.2l-12.9-12.7c-7-7-13.4-12.7-14.3-12.7c-0.8,0-3.6,1-6.2,2.4c-9.1,4.6-40.3,16.5-51.6,19.5
		c-27.4,7.6-47.8,10.4-67.2,9.4c-24.7-1.3-37.8-6.7-48.6-20.2c-10-12.6-15.5-16.2-23.6-16.2c-6.8,0-13.3,4.4-22.8,16
		c-9.9,11.9-18.9,16.5-37.5,19.5C418.6,7368.8,398.6,7369,390.4,7368z M581.3,7346.1c0-3.3-30.8-8.1-46.2-7.2
		c-6.2,0.4-11.8,1.3-12.4,1.9c-0.8,0.8,2.3,2,8.1,3.2c5.1,1.1,10.4,2.3,11.8,2.5C547.8,7347.6,581.3,7347.3,581.3,7346.1z
		 M609.4,7340.1c3.3-1.1,6-2.5,6-2.9s-3.3-2.5-7.2-4.8c-4.1-2.3-10-5.8-13.3-7.9c-23.8-14.7-73.3-16.6-101.8-3.9
		c-5.2,2.3-7.6,5.2-4.4,5.2c0.8,0,3.7,1.5,6.5,3.4c4.9,3.3,5.5,3.3,12.3,1.9c3.9-0.8,13.1-2.2,20.2-2.9c21.2-2.4,48.6,1.8,66.4,10
		c4.4,2.2,8.4,3.9,8.7,3.9C603.1,7342.3,606,7341.3,609.4,7340.1z"/>
	<path class="st1" d="M381.4,7288.9c-11.9-2.7-26.1-7.7-26.8-9.5c-0.3-0.6,2.3-2.3,5.6-3.6c5.8-2.4,5.8-2.4,16.4,0.4
		c34.1,8.9,70.4,4.4,95.2-11.7c11.3-7.4,13.1-8.2,23.3-11.7c8-2.8,9.6-2.9,20.4-1.8c11.3,1.1,34.2,4.7,35,5.5
		c0.1,0.3-7.2,0.8-16.5,1.1c-24.9,1.1-39.6,5.5-55.9,16.5c-9.8,6.6-22.1,11.5-36.9,14.7C425.1,7292.4,396.5,7292.4,381.4,7288.9z"/>
	<path class="st1" d="M617.9,7282.3c-10.3-4.4-22.2-11.9-16.5-10.4c1.8,0.5,9.5,3.9,17.1,7.6C633.8,7286.9,633.3,7289,617.9,7282.3z
		"/>
	<path class="st1" d="M398,7263.8c-3.3-0.8-1.4-1.5,12.7-4.8c23.7-5.8,60.2-10.8,60.2-8.2c0,1.6-15.3,7.4-27.9,10.4
		C431.5,7263.9,404.6,7265.5,398,7263.8z"/>
	<path class="st1" d="M841.9,7431.5c-3.7-3.6-2.5-6.5,3.3-7.9c2.9-0.8,5.7-1.1,6.3-0.8c2,1.3,0.9,6.7-1.8,8.6
		C846.3,7434.1,844.3,7434.1,841.9,7431.5z"/>
	<path class="st1" d="M210.5,7287.9c-5.2-3.3-5.3-3.7-2.8-6.5c2.3-2.5,2.3-2.5,5.2,2.2C217.3,7290.9,216.8,7291.9,210.5,7287.9z"/>
	<path class="st1" d="M239.9,7267.8c-5.3-6.3-5.3-6.5-1.9-8.6c3-2,3.6-2,6.5-0.1c3.4,2.3,4.2,6.8,1.6,9.4
		C244,7270.6,242.1,7270.4,239.9,7267.8z"/>
	<path class="st1" d="M697.8,7239.8c-2.8-2.2-2.8-2.4-0.8-6.2c2.8-5.5,4.3-6.1,7.2-3.4c3.2,2.8,2.7,7.9-0.9,10.3
		C701,7242,700.4,7241.8,697.8,7239.8z"/>
	<path class="st1" d="M293.6,7224l-4.2-4.3l3.2-1.4c1.8-0.8,3.4-1,3.8-0.5c0.8,1.4,2.4,10.4,1.8,10.4
		C298,7228.1,295.8,7226.2,293.6,7224z"/>
	<path class="st1" d="M326.9,7210.9c-2.3-6.1-1.5-8,3.4-8.1c4.7,0,8.2,8.2,4.7,11C330.6,7217.2,329,7216.6,326.9,7210.9z"/>
	<path class="st1" d="M360.9,7198.6c-2.2-6-1.9-6.8,1.9-7.7c5.5-1.4,10,6,6.1,9.9C365.6,7204,362.5,7203.2,360.9,7198.6z"/>
	<path class="st1" d="M612,7189.8c0.3-4.1,1-5.6,2.7-5.8c4.2-0.9,4.9,1.8,1.8,6.6c-1.5,2.5-3.3,4.6-3.8,4.6
		C612.1,7195.2,611.9,7192.8,612,7189.8z"/>
	<path class="st1" d="M544,7182.9c-0.3-0.5-0.3-3.2,0-5.7c0.5-3.9,1.1-4.8,3.4-4.8c4.4,0,6.1,1.9,5.6,6.5c-0.4,3.8-0.9,4.3-4.4,4.7
		C546.4,7183.8,544.4,7183.4,544,7182.9z"/>
	<path class="st1" d="M471.6,7170.4c-0.5-6-0.5-11.4-0.1-12c1.1-1.9,9-1.5,10.7,0.5c0.9,1,1.9,4.9,2.3,8.7c0.6,6.3,0.4,7.4-2.5,10.3
		c-1.8,1.8-4.7,3.3-6.3,3.3C472.6,7181.2,472.5,7180.7,471.6,7170.4z"/>
</g>
</svg>
