<?xml version="1.0" encoding="utf-8"?>
<!-- Generator: Adobe Illustrator 16.0.0, SVG Export Plug-In . SVG Version: 6.00 Build 0)  -->
<!DOCTYPE svg PUBLIC "-//W3C//DTD SVG 1.1//EN" "http://www.w3.org/Graphics/SVG/1.1/DTD/svg11.dtd">
<svg version="1.1" id="Layer_1" xmlns="http://www.w3.org/2000/svg" xmlns:xlink="http://www.w3.org/1999/xlink" x="0px" y="0px"
	 width="231.892px" height="167.458px" viewBox="0 0 231.892 167.458" enable-background="new 0 0 231.892 167.458"
	 xml:space="preserve">
<style type="text/css">
	.st0{fill:#FFFFFF;}
	.st1{fill:#1B469C;}
	.st2{fill:#E82229;}
</style>
<circle class="st0" cx="113.8" cy="84.8" r="82.1"/>
<g transform="translate(0.000000,802.000000) scale(0.100000,-0.100000)">
	<path class="st1" d="M1071.1,7991.7c-11.3-0.9-27.4-3-35.7-4.4c-8.3-1.2-24.8-3.9-36.8-5.8c-104.9-16.8-220.4-62.3-314-124.2
		c-26.7-17.7-67.9-48.3-83.7-62.6c-90.9-81.4-147-153.7-199-256.3c-43-84.9-69.3-170.9-82.4-271.5c-6.7-49-7.1-138.7-0.9-185.2
		c9.7-74.8,29.9-155.5,52-208.2c3.9-9.4,8.5-20.9,10.1-25.3c1.6-4.4,10.6-23,19.8-41.2c24.2-48.3,54.8-98.2,80.5-131.4
		c6.4-8.3,15.9-20.7,21.2-27.6c17-22.8,98-101.2,126.1-122.2c100.5-75.5,197.4-123.1,304.8-150.5c72.7-18.4,127-25.1,204.8-25.3
		c94.1,0,168,11.7,257.7,41c57.7,18.9,131.8,53.6,179.5,84c5.1,3.2,13.3,8.5,18.4,11.7c37.5,24.2,90.4,67,124.7,101
		c26.2,26.2,71.3,78,83.5,96.2c27.1,40.3,35.7,53.1,44.9,68.8c14.7,24.6,45.1,84,51.8,101.2c2.8,7.6,7.1,19.1,9.7,25.3
		c13.8,35.9,23.5,67.9,33.8,111.6c14.5,61.9,19.1,104.5,19.6,177.2c0.2,69.5-2.3,95.7-15,163.3c-7.8,40.5-24.8,98-42.3,142.6
		c-24.2,61.7-78,156.2-113.2,199c-68.8,83.7-97.3,110.7-185.9,175.8c-29.9,21.9-123.8,71.8-163.3,86.7c-69,26-130.7,42.8-181.8,49.5
		c-11.3,1.4-25.8,3.7-32.2,4.6C1210.7,7992.6,1095.5,7994,1071.1,7991.7z M1189.6,7954c14.7-1.4,27.8-3.5,29.4-4.6
		c1.6-0.9,2.8-6.4,2.8-12.2c0-9.4,8.7-67.4,10.4-69.3c0.2-0.5,9.7,16.1,20.9,36.8c11,20.7,20.2,37.7,20.7,38.2
		c0.2,0.5,8.3-0.9,17.9-2.8c9.4-2.1,23-3.7,29.9-3.7c6.9,0,13.1-0.9,13.8-2.1s-0.2-5.8-2.1-10.6c-5.1-11.5-17.5-98.9-17.9-123.8
		c-0.2-19.3-0.5-20.2-5.1-19.1c-2.5,0.7-14.5,2.5-26.5,4.1c-12,1.4-22.1,2.8-22.5,3.2c-0.5,0.2,0.9,6,2.8,12.7
		c2.1,6.7,5.8,26.5,8.3,44.2c2.5,17.7,5.3,34.7,6,38.2c1.6,7.8-13.8-17.9-35.2-58.7l-16.8-32.4l-11,1.1c-6,0.5-11.3,1.4-11.5,1.8
		c-0.9,0.5-13.8,62.1-19.1,91.3c-1.4,7.4-3,13.1-3.2,12.7c-1.4-1.2-12.9-79.8-13.3-89.5l-0.2-9.4l-8.3,1.4
		c-4.4,0.7-13.8,1.8-20.7,2.5c-19.3,2.3-18.9,1.6-13.8,15.9c9,26.2,24.6,120.3,22.1,133l-1.4,7.1l8.5-1.6
		C1159.2,7957.7,1175.1,7955.6,1189.6,7954z M1026.9,7931.5c11-25.8,35-73.9,50.2-101.2c7.6-13.8,13.1-26,12.4-27.1
		c-0.7-1.4-4.8-2.3-8.7-2.3c-4.1,0-15.2-2.1-24.6-4.6c-9.4-2.5-17.5-4.6-17.5-4.6c-0.2,0-2.5,6.2-5.3,14c-3,7.6-6.4,14.3-8.1,15
		c-1.4,0.5-11-0.9-20.9-3.2l-18.4-4.1v-15.4v-15.4l-8.1-1.4c-4.4-0.7-14.7-2.8-22.8-4.6c-8.1-1.8-15.2-2.8-15.9-2.1
		c-0.7,0.5,0.5,8.5,2.5,17.7c3.2,15.2,12.4,103.5,13.8,131.8l0.5,11.3l19.6,3c10.8,1.4,24.2,4.4,29.9,6.2c5.8,1.8,11.3,3.2,12.2,3.5
		C1018.9,7948,1022.8,7940.4,1026.9,7931.5z M844.9,7834.1c-0.9-75.5-1.4-73.4,14-66.9c13.1,5.3,30.8,17.9,34.1,23.7
		c1.6,3,3.7,5.3,4.6,5.3c1.8,0,11.3-28.8,11.3-34.1c0-1.4-5.5-4.8-12-7.8c-19.6-8.3-85.1-41-91.8-45.8c-3.5-2.3-6.9-4.4-7.6-4.4
		c-0.7,0-0.9,26.7-0.2,59.4c0.9,32.4,0.5,64-0.5,69.9l-1.8,10.8l-18.4-9c-10.1-5.1-20.7-12-23.7-15.2c-3-3.5-5.8-5.8-6.2-5.1
		c-0.5,0.5-4.1,7.8-7.8,16.3l-7.1,15.6l16.8,7.4c20.2,8.7,87,42.3,90,45.3C845.2,7906.4,845.6,7900.6,844.9,7834.1z M1476,7876.2
		c42.8-19.1,56.4-31.7,56.4-51.8c0-24.2-20.7-41.4-42.6-35.4l-8.7,2.3l8.5-8.7c19.3-19.8,17.7-42.3-4.8-59.4
		c-7.1-5.5-10.4-6.4-23.7-6.4c-16.6,0-11-2.3-74.8,30.8c-15,7.8-27.8,14.7-28.5,15.4c-0.5,0.5,1.6,3.9,5.1,7.4
		c10.8,11.3,57.5,103.3,60.3,118.9c0.9,5.1,2.3,9.9,2.8,10.8c0.5,0.9,5.3-0.9,10.6-4.4C1441.7,7892.3,1459.4,7883.6,1476,7876.2z
		 M698.8,7747.2c26.5-32.7,37.3-45.1,53.6-60.5c5.5-5.5,9.7-10.4,9.2-10.8c-0.7-0.5-8.3-6-17.3-12.4c-8.7-6.4-18.6-14.5-21.6-17.7
		l-5.3-5.8l-5.1,9.7c-6.2,12.7-57.7,76.4-78,97.1c-8.7,8.7-15,16.3-13.6,16.8c4.1,1.4,31.1,22.5,37.3,29l5.5,6.2l5.5-10.6
		C672.1,7782.1,685.5,7763.7,698.8,7747.2z M1676.2,7735.2c11.5-9.7,20.9-18.4,21.4-19.3c0.2-0.7-5.1-7.1-12.2-14
		c-11-10.8-12.7-11.7-14-7.8c-2.1,5.8-33.4,37.7-36.8,37.7c-1.6,0-6.9-4.8-12-11l-9.2-10.8l15.4-13.3c8.3-7.4,16.8-14.3,18.6-15.4
		c2.5-1.6,0.9-4.4-8.1-14.3c-13.6-14.5-14.3-15-16.1-9c-0.7,2.5-7.8,10.4-15.4,17.5l-14.3,12.7l-7.1-6.9c-3.7-3.7-9-9.9-11.3-14
		l-4.1-7.1l13.3-12.4c7.6-6.9,18.4-15,24.6-17.7c6-2.8,10.8-5.5,10.8-6.2c0-1.6-24.6-20.7-26.5-20.7c-0.9,0-12.2,10.1-25.1,22.3
		c-12.7,12.2-30.8,28.5-40,36.1l-17,13.8l9,7.1c10.6,8.5,12,9.7,41.6,41.9c27.1,29.2,45.1,51.1,50.2,60.7l3.5,6.9l20-19.6
		C1646.5,7761.7,1664.9,7744.9,1676.2,7735.2z M1201.1,7758.2c157.6-16.8,300.2-94.6,398.5-217.6c66.3-82.8,107.4-177.2,124-284.4
		c7.1-45.1,7.1-121.5,0.2-168c-23.7-157.6-104.2-293.6-229.8-388.1c-175.3-132.1-409.5-156-609.2-62.3
		c-114.6,53.6-215.3,150.9-272.2,262.5c-29.2,57.5-45.6,106.5-58.4,174.6c-4.8,25.1-5.3,34.3-5.1,97.8c0,67,0.2,71.6,6.2,102.4
		c20.2,102.8,60,189.3,123.1,268c57.3,71.6,141.3,135.1,226.2,170.9C997.2,7753.6,1101.2,7769,1201.1,7758.2z M574.4,7686.7
		c33.4-29.7,95.9-74.5,104-74.5c1.8,0-1.8-6.4-8.3-14.3c-6.2-8.1-13.1-17.9-15.6-21.9c-2.3-4.1-5.3-7.6-6.7-7.6
		c-1.2,0-26.7,3-56.4,6.7s-54.3,6.2-54.8,6c-1.6-1.4,61.2-45.8,70.4-49.9c10.6-4.8,10.6-7.6,0.7-16.6c-2.5-2.3-8.1-9.4-12-15.4
		l-7.1-11.3l-16.6,14.7c-30.6,27.1-88.8,69.3-103.5,75l-6,2.3l13.3,16.8c7.4,9.4,15.9,20.7,18.6,25.3c2.8,4.6,6.7,8.5,8.3,8.5
		c2.5,0,72.9-9.9,88.1-12.4c2.8-0.5,4.8,0,4.6,1.2c-1.2,3.5-52.7,38.7-60.7,41.6c-4.4,1.4-7.8,3.5-7.8,4.4c0,0.9,3.7,6,8.3,11.5
		c4.6,5.5,11.3,14.5,15.2,20l6.9,9.9l5.3-7.1C565.4,7695.6,570.7,7689.9,574.4,7686.7z M1758.8,7646.2c1.6-3,10.8-17.7,20.2-32.9
		s23-35.9,30.4-45.8c7.1-10.1,12.9-18.9,12.9-19.8s-9.7-2.3-21.2-3.2c-22.1-1.6-93.9-9.7-107-11.7c-5.5-0.9-7.6-2.5-7.6-6
		c0-9.2,20-35,32-41.2c7.4-3.7,7.8-4.4,3.7-6c-2.5-0.9-10.1-4.1-17-7.1c-6.7-2.8-13.1-5.3-14-5.3c-0.9,0-11.7,15.9-23.9,35.2
		c-12.2,19.1-27.8,43-34.7,52.7l-12.4,17.5l14.3,1.4c7.8,0.7,27.1,2.5,43,3.9c28.8,2.5,74.5,8.3,79.8,10.1
		c3.7,1.2-13.1,28.8-23.9,39.1l-7.6,7.4l13.3,8.3c7.1,4.6,13.8,8.3,14.7,8.5C1754.6,7651.2,1756.9,7648.9,1758.8,7646.2z
		 M426,7495.7c3.7-4.6,4.4-4.8,59.4-24.2c60.5-21.2,68.1-27.6,67.6-57.3c-0.5-26.9-18.6-71.8-34.5-84.9c-15-12.4-18.2-12-78,7.6
		c-29.4,9.7-57.3,17.5-61.7,17.5c-4.6,0-8.3,0.5-8.3,0.9c0,0.5,2.5,6.4,5.5,13.1c3.2,6.9,7.4,19.3,9.4,27.8l3.9,15.4l12-6.7
		c15.9-9,84.9-32.2,95.7-32.2c9.2,0,16.3,5.8,20.5,16.8c3.9,10.4,3,23.5-1.8,27.8c-4.8,4.4-86,32.2-101,34.7
		c-8.1,1.4-9.7,2.3-8.5,5.3c5.1,12.2,12.7,35.4,12.7,38.4C418.8,7500.5,422.1,7500.3,426,7495.7z M1861.1,7461
		c2.8-12.9,16.3-55,24.8-77.3c3.7-9.2,5.3-16.3,3.9-17.5c-1.8-1.6-27.8-9.4-31.5-9.4c-0.9,0-1.2,2.3-0.5,5.3
		c1.4,5.3-9,44.9-12.7,48.5c-1.4,1.4-7.6,0.5-16.1-2.1c-7.6-2.3-13.8-4.4-13.8-4.4c0-2.8,12.4-37.7,14-39.1c4.4-4.6,1.6-7.6-11-11.5
		c-7.4-2.3-14.5-4.6-15.9-5.3c-1.6-0.5-3.7,4.6-5.3,12.4c-3.5,17.5-9.4,32.9-12.7,32.7c-7.1-0.5-25.3-8.3-27.6-11.7
		c-3.2-5.3,5.8-32.7,15-45.6c3.9-5.3,6.4-10.1,5.8-11c-1.6-1.4-20.7-4.8-29.4-4.8c-4.6-0.2-6.4,0.9-6.4,3.9
		c0,5.3-18.4,64.4-26.2,83.5c-3.2,8.3-6,15.6-6,16.3c0,0.7,6,1.8,13.3,2.3c15.2,1.6,107.4,31.5,121.2,39.8c5.1,2.8,10.4,5.3,12,5.5
		C1857.5,7471.8,1859.8,7466.9,1861.1,7461z M465.5,7242.2c12.2-0.2,22.3-1.4,22.3-2.3s-7.4-6.7-16.3-12.9c-9-6-16.6-12.2-17.3-13.8
		c-0.5-1.4,2.1-11.3,5.8-22.1c3.7-10.8,6.2-19.8,6-20.2c-0.5-0.5-9.2,5.1-19.3,12.2l-18.9,13.1l-17.3-13.1
		c-9.7-7.1-17.9-12.7-18.4-12c-0.7,0.5,1.6,8.7,4.8,18.4c3.2,9.7,5.8,19.3,5.8,21.9c0,2.8-5.8,8.3-16.1,15.4
		c-8.7,6.2-16.1,12-16.1,13.1c0,0.9,9.7,1.8,21.6,1.8h21.6l7.6,22.5l7.4,22.3l7.4-21.9l7.4-21.9L465.5,7242.2z M1855.4,7262.4
		l6.4-20.5l23.2-0.7l23.2-0.7l-17.7-13.3c-9.7-7.1-17.7-14.5-17.7-16.1c0-1.4,2.8-10.8,6-20.7c3.2-9.9,5.3-18.6,4.6-19.3
		c-0.7-0.9-3.7,0.7-6.7,3.2c-2.8,2.5-10.6,8.3-17,13.1l-12.2,8.7l-18.4-13.1c-10.1-7.1-18.4-12.4-18.4-11.5c0,0.7,2.8,10.8,6.2,22.1
		c5.3,17.9,5.8,21.2,3,22.8c-1.8,1.2-10.1,6.9-18.4,13.1l-15,11l23.2,0.7l23,0.7l6.7,20.5c3.7,11.5,7.4,20.7,8.1,20.7
		C1848.5,7283.1,1851.9,7273.9,1855.4,7262.4z M448.7,7090.5l6.4-20.2l22.1-0.7c12.2-0.2,22.1-1.6,22.1-2.8c0-1.4-0.9-2.3-1.8-2.3
		c-1.2,0-7.6-4.1-14.5-9.4c-6.9-5.1-13.8-10.1-15.6-11c-2.5-1.6-1.8-5.8,4.1-23.2c3.9-12,6.7-21.9,6.2-22.3
		c-0.2-0.5-8.5,4.8-18.2,12c-9.4,6.9-18.2,12.7-19.3,12.7c-0.9,0-9.4-5.8-18.9-12.7c-9.4-6.9-17.5-12.2-17.9-12
		c-0.2,0.5,2.5,9.9,6.2,21.2c4.1,12.9,5.8,21.6,4.6,23c-1.2,1.4-9,7.1-17,12.9c-8.3,5.5-15.2,10.8-15.2,12c0,0.9,9.7,1.6,21.6,1.6
		h21.6l7.4,22.1c4.1,12,7.8,21.4,8.5,20.9C441.6,7111.5,445.1,7101.8,448.7,7090.5z M1844.1,7089.4l6.2-20l23-0.7l23-0.7l-18.4-13.3
		l-18.6-13.1l6.9-20c3.7-11,6.4-20.9,6.2-21.9c-0.5-1.2-8.3,3.9-17.7,10.8c-9.4,6.9-17.9,12.7-19.1,12.7c-1.2,0-9-5.1-17.3-11.5
		c-21.6-16.3-22.1-16.3-13.3,9.2c3.2,9.2,5.8,17.9,5.8,19.3s-8.1,8.3-17.9,15.2l-17.7,12.7l22.8,1.1l23,1.2l6.9,21.2
		c3.9,11.7,7.6,20.7,8.5,19.6C1837.2,7110.1,1840.7,7100.4,1844.1,7089.4z M498.2,6937.3c5.5-15.2,6-18.4,3.2-20.2
		c-5.3-3.2-7.1-1.4-10.6,9.9c-3,10.8-3,10.8-10.1,8.3c-7.4-2.5-7.6-3.5-3.2-17c1.2-3.5,0.5-5.3-2.3-6.4c-5.1-1.8-8.1,0.2-8.1,5.3
		c0,2.1-1.4,5.8-3,8.1c-3,3.9-3.5,3.9-10.4,0.5c-4.1-2.1-7.4-4.4-7.4-5.1c0-0.7,2.1-5.3,4.6-10.6c4.8-10.1,4.4-13.3-2.3-13.3
		c-3.2,0-5.5,4.1-10.4,18.6c-3.5,10.1-5.5,19.1-4.8,19.8c0.7,0.9,9.9,4.4,20.2,8.1c10.4,3.7,22.5,8.3,27.1,10.6
		c4.4,2.3,8.7,3.7,9.4,3C491.1,6955.7,494.8,6947.2,498.2,6937.3z M1807.3,6950.7c3.2-3,5.8-7.1,5.8-9.2c0-3.9,4.4-3.2,21.4,2.5
		l8.7,3l-1.6-8.5c-2.1-11.3-1.8-11-10.6-12.7c-4.1-0.7-10.6-2.3-14.5-3.9c-6.7-2.5-6.7-2.8-2.5-6c2.5-1.8,6.9-3.2,9.7-3.2
		c6.7,0,8.1-2.5,6.4-11.5c-1.2-5.3-2.5-6.9-5.3-6.2c-17.5,4.8-56.8,16.6-57.5,17c-2.1,1.4,9.9,34.7,14.3,39.3
		C1788,6958.5,1799.9,6958.3,1807.3,6950.7z M516.8,6884.9c-0.7-1.8-6-10.4-11.7-19.1c-5.5-9-9.9-16.3-9.4-16.8
		c0.5-0.5,7.8,2.8,16.3,7.1c8.5,4.6,16.1,8.3,16.8,8.3c0.9,0,2.8-2.8,4.4-6c2.5-5.3,2.1-6-3.5-8.3c-3.5-1.4-15.9-7.1-27.8-12.7
		c-11.7-5.3-22.3-9.9-23.2-9.9c-0.7,0-2.8,2.5-4.4,5.5c-2.8,5.1-2.1,7.4,9.9,26.7c7.4,11.7,12.7,21.6,12,22.3
		c-0.7,0.7-9.2-3-18.9-8.3s-17.9-9.2-18.2-9c-3.2,3.9-5.8,12-4.1,13.1c0.9,0.9,6.4,3.5,12.2,5.8c5.8,2.1,17.7,7.6,26.5,12.4
		l16.1,8.7l4.4-8.5C516.4,6891.8,517.8,6886.5,516.8,6884.9z M1767.7,6892c-0.2-1.8-1.6-6.9-3.5-11c-2.8-6.9-2.5-8.1,1.4-11
		c6.9-5.1,10.1-3.9,13.1,4.8c3,8.3,5.3,9.4,10.8,6c2.8-1.6,2.5-3.2-0.5-9c-5.1-9.9-4.8-11,3.5-14c9-3.2,9.7-2.5,13.6,9.4
		c3.9,12.4,3.5,12,8.7,9c4.6-2.3,4.4-3-3.7-21.9l-8.1-19.1l-15.2,7.4c-8.3,4.1-21.4,9.4-29,11.7c-7.6,2.3-14,4.4-14.5,4.4
		c-0.2,0.2,2.3,6.4,5.5,14c3.2,7.4,6.9,15.9,8.1,18.9C1760.4,6897.5,1768.4,6897.8,1767.7,6892z M1744.3,6834.3
		c-2.5-2.1-5.8-6.4-6.9-9.4c-4.4-11.7,8.7-25.3,25.1-25.8c7.8-0.2,10.6,0.9,15.2,6.2c3,3.7,5.5,8.5,5.5,11c0,5.3,3,5.8,6.9,0.9
		c6.4-7.8-10.8-32.2-24.6-34.7c-16.3-3-35.2,8.1-39.6,23.5c-2.5,9,2.3,27.1,9,34.3c5.1,5.5,5.5,5.5,9.9,1.8
		C1748.9,6838.2,1748.9,6837.9,1744.3,6834.3z M544.9,6831.3c6.4-3.2,16.6-18.6,16.6-25.1c0-5.1-9.2-6.7-10.6-2.1
		c-3.9,12.2-5.8,14.5-10.8,13.8c-4.6-0.7-5.1-2.1-5.5-15.6c-0.2-12.9-1.2-15.6-6.4-20c-3.2-3-7.8-5.3-9.9-5.3
		c-7.1,0-18.6,9-23.5,18.2c-5.5,11-5.8,15.4-0.9,17.3c6.2,2.3,7.8,1.6,7.8-4.1c0-3,2.1-7.8,4.4-10.8c3.7-4.6,5.3-5.1,8.7-3
		c3.5,2.1,3.9,5.1,3.5,15.4c-0.7,11.3-0.2,13.6,5.1,18.9C529.7,6835.2,535.9,6835.9,544.9,6831.3z M579.4,6783.4l4.8-7.4l-10.8-6.2
		c-6-3.7-17.5-11.5-25.8-17.9l-15-11.3l-5.1,6c-2.8,3.5-5.1,6.7-5.3,7.4c0,0.7,3.5,3,7.6,5.3c4.1,2.3,15.2,10.1,24.6,17.7
		c9.4,7.4,17.9,13.6,18.9,13.6C574.1,6790.8,576.9,6787.5,579.4,6783.4z M1755.5,6756.3c3-1.8,3-2.8-0.2-8.3c-3.7-6-3.7-6-29.9-5.8
		l-26.2,0.5l9.4-6.7c5.3-3.9,12.9-8.7,17.3-10.8c4.4-2.3,8.3-4.4,8.5-4.8c0.5-0.2-0.9-3.7-3-7.4l-4.1-6.7l-14.5,11
		c-8.1,6-19.6,13.8-25.5,17.3c-6.2,3.5-11.5,6.7-12,6.9c-0.5,0.5,1.6,4.6,4.6,9.2l5.1,8.5l22.8-1.4c12.4-0.7,22.5-0.5,22.5,0.2
		c0,0.9-5.3,4.8-11.7,8.5c-20.5,12.2-19.6,11.3-15.2,17.9l3.9,6l22.3-16.1C1742,6765.5,1753.5,6757.4,1755.5,6756.3z M602.4,6753.7
		l5.3-6l-7.1-21.4c-3.7-12-6.4-21.9-6.2-22.3c0.5-0.5,7.1,5.1,14.7,12l13.8,12.4l4.8-5.1l5.1-5.3l-25.5-20.2
		c-14-11-25.5-19.8-25.8-19.6c-0.2,0.5-2.3,3-4.4,5.5c-3.7,4.4-3.5,6,3.9,28.8c4.4,13.1,7.6,24.2,7.1,24.6
		c-0.9,1.2-21.6-16.1-27.4-22.8c-3.9-4.6-4.1-4.6-8.5-0.7c-2.5,2.3-4.6,5.3-4.6,6.7s6,6.9,13.3,12.2c7.1,5.5,17.7,14.5,23.5,20.2
		c5.5,5.8,10.8,9.7,11.5,8.5C596.7,6760.4,599.7,6756.9,602.4,6753.7z M1672.7,6723.8c0-0.7-3-4.1-6.9-7.8
		c-8.3-7.8-8.5-10.6-2.1-16.3c4.8-4.4,4.8-4.4,11.3,3.2c4.1,5.1,7.4,7.1,9.9,6c5.5-2.1,4.8-5.5-2.3-13.1l-6.4-6.7l5.5-4.4
		c7.4-6.2,11.7-4.8,18.4,5.5c4.4,6.7,6.2,7.8,8.7,6c5.3-4.6,3.2-9.7-9.9-23.7l-12.4-13.8l-9.9,9.4c-11.3,10.8-32.4,27.4-36.6,28.8
		c-1.6,0.7,2.5,7.4,10.6,17.3c12,14.5,14,16.1,17.7,13.8C1670.9,6726.4,1672.7,6724.7,1672.7,6723.8z M661.6,6689.5l6.4-6.7
		l-9.7-17.9c-5.3-9.9-11.7-22.8-14.5-28.8c-2.5-6.2-5.5-11-6.4-11c-0.7,0-3.9,2.5-6.9,5.8c-4.8,5.1-5.1,6.2-2.3,12.7
		c2.8,6.7,2.5,7.6-3,13.3c-6.2,6-6.2,6-13.3,1.8c-6.7-3.9-7.1-3.9-11.5,0c-6.7,6-5.3,8.7,6.7,14c6,2.8,18.2,9,26.9,14
		c9,5.3,17.3,9.4,18.6,9.4C653.7,6696.4,657.9,6693.5,661.6,6689.5z M1635,6686.8c0.9-3,7.1-16.6,14-30.6l12.2-25.1l-6.4-6.4
		l-6.4-6.7l-22.3,12.9c-12.4,7.1-25.5,14-29.2,15.4c-8.5,2.8-8.5,3.5-0.9,11.3l6.2,6.4l9.4-6.4c14.5-9.7,31.3-19.1,31.3-17.3
		c0,0.9-4.8,10.6-10.6,21.6c-10.4,19.8-10.6,20.2-6.4,25.1C1631.1,6693.2,1632.9,6693.2,1635,6686.8z M720.2,6636.6
		c6.4-12-2.5-26.7-16.8-28.1l-7.4-0.7l-0.7-15.6l-0.7-15.4l-8.1,6.2c-7.8,6.4-8.1,6.7-6.7,19.3c1.6,14.5-1.8,20.2-7.1,12.2
		c-9.7-14.3-9.2-14.3-16.1-7.6l-6,6.2l15.2,18.9c8.3,10.4,17,21.9,19.1,25.3l3.7,6.4l14.7-11.5
		C711.5,6645.8,719.1,6638.9,720.2,6636.6z M1548,6599.8c5.1-4.6,6-8.7,5.1-21.2c-0.2-5.5,1.2-6.7,13.8-11.3l14.3-5.1l-5.5-4.4
		c-8.5-6.7-12.4-6.9-22.3-1.8c-16.8,8.5-22.1,5.1-11.5-7.6l6.7-8.1l-6.9-5.1c-3.9-2.8-7.4-4.8-7.8-4.4c-0.5,0.5-6.9,10.4-14.5,21.6
		c-7.6,11.5-15.6,22.3-17.7,23.9c-2.1,1.6-3.7,3.9-3.7,5.1s6.9,6.7,15.4,12.4C1530.8,6605.6,1540,6607.2,1548,6599.8z M1595.2,6574
		c0.7-12.7-3.2-13.3-8.1-1.4c-3.9,9-3.9,9.9-0.2,13.8c3.5,3.9,4.1,3.9,6,0.7C1593.8,6585.3,1594.9,6579.3,1595.2,6574z
		 M808.8,6581.2c6.7-3.9,8.1-6,7.1-9.9c-3.2-11-10.6-48.3-10.6-53.4c0-6.4-2.3-6.9-11.7-2.1c-6,3.2-6.7,4.6-5.5,11.3
		c1.4,6.7,0.7,8.1-6.2,12.4l-7.6,5.1l-5.1-5.8c-5.1-5.8-5.5-5.8-12.4-2.1l-7.1,3.7l20.2,18.6c11,10.4,21.9,20.7,23.7,23
		C798,6587.2,798.7,6586.9,808.8,6581.2z M722.5,6574.5c0-1.4-4.6-4.6-10.4-7.4c-8.3-4.1-10.8-4.6-13.3-2.1
		c-2.3,2.3-2.1,3.2,0.9,4.8c2.1,1.2,6.2,4.1,9.2,6.7C714.5,6580.9,722.5,6579.8,722.5,6574.5z M1489.8,6557.9
		c4.6-9.2,11.7-21.9,15.4-27.8c3.9-6,6.7-11.3,6.2-11.5c-6-4.4-14-8.7-14.7-8.1c-0.2,0.5-4.4,8.5-9.2,17.7c-4.6,9.4-11,21.2-14,26
		c-3,4.8-5.5,9.4-5.5,10.4c0,1.4,10.1,9,12.9,9.9C1481.1,6574.5,1485,6566.9,1489.8,6557.9z M878.5,6543.9c4.6-4.1,5.3-6.7,4.4-14.3
		c-2.3-16.8-17-23.7-35-16.3l-7.8,3.5l-2.8-8.5c-3.9-12.2-3.7-12.2-12.7-8.1c-4.4,2.1-7.6,4.4-7.1,5.1c4.8,8.7,20.5,43.7,21.6,48.3
		c0.7,3.2,1.8,6.7,2.3,7.6C842.6,6563.5,872.3,6549.7,878.5,6543.9z M1451.4,6548.5c0.7-5.8,0-6.2-7.1-6.2
		c-16.6,0-25.8-18.4-16.1-32.2c6-8.7,10.4-11.3,18.6-11.5c9.2,0,11.3,4.1,6.4,13.6c-3.7,6.9-3.7,7.1,3.5,10.6c3.9,2.1,7.4,3.5,7.4,3
		c0.2-0.5,3.2-6.2,6.4-12.7c4.4-8.7,5.3-12.7,3.5-14.3c-6-4.8-22.3-11.7-30.8-13.1c-27.8-4.4-46,36.6-24.8,56.4
		c5.5,5.3,26.2,14.3,30.1,13.1C1449.8,6554.9,1450.9,6551.7,1451.4,6548.5z M918.1,6531.9c20.5-6.9,27.6-12.9,27.6-23
		c0-8.1-8.7-19.6-15-19.6c-4.6,0-4.4-4.4,0.9-18.4c4.6-12.4,3.9-13.1-7.8-9c-6.2,2.3-7.8,4.6-10.6,15.4c-4.1,16.1-7.8,17.5-11.5,4.6
		c-1.6-5.5-3-10.1-3.2-10.6c-0.7-0.9-15,4.6-15,6c0,0.7,3.7,12.4,8.1,26c4.4,13.8,8.1,27.1,8.1,29.7s0.2,4.6,0.7,4.6
		S908.9,6535.2,918.1,6531.9z M1384,6513.1c4.8-7.4,13.3-19.3,18.9-26.5c5.3-7.1,9.9-13.6,9.9-14c0-0.7-3.7-2.5-8.3-3.9
		c-8.7-3-8.7-3-14.5,6.7c-1.8,2.8-3.7,3-11.5,0.5c-9.2-2.8-9.4-3-8.3-10.4c1.4-6.7,0.9-7.8-3.9-9c-11.3-3.2-11-3.5-11,31.5v32.9
		l7.6,2.5C1374.5,6527.1,1374.8,6526.9,1384,6513.1z M990.1,6510.8c17.5-4.1,19.6-5.8,15.6-12c-1.6-2.5-3.5-2.5-10.4-0.2
		c-10.6,3.5-14.3,2.1-15.6-5.8c-1.4-6.2-0.9-6.7,10.4-9c4.8-1.2,6.2-2.8,6.2-7.4c0-4.8-0.9-5.8-3.9-4.4c-2.3,0.7-6.9,2.1-10.4,2.8
		c-5.3,0.9-6.4,0.2-7.8-4.8c-2.8-11.3,0.5-13.8,18.2-13.6c4.4,0,5.3-6.2,1.6-9.9c-3.7-3.7-40.5,6.7-39.3,10.8
		c6.4,24.4,11.7,48.3,11.7,53.4c0,4.4,0.9,6.2,3,5.5C970.8,6515.6,980.2,6513.1,990.1,6510.8z M1042.1,6499.5
		c1.2-1.2,11.5-25.8,14.7-34.7c1.2-4.1,3.2-7.6,3.9-7.6c0.9,0,2.5,9,3.5,19.8l1.6,19.6l7.1-0.7c5.3-0.5,7.1-1.8,6.4-4.1
		c-0.5-1.8-2.8-15.9-5.3-31.1s-4.8-27.8-5.1-28.1c-0.5-0.5-3.7,0-7.6,0.7c-6.2,1.2-8.1,3.7-17,24.2c-5.5,12.4-10.4,22.1-10.8,21.6
		c-0.5-0.5-2.3-10.1-3.7-21.2c-2.5-17.9-3.2-20.2-7.4-19.6c-9.4,1.4-9.7,1.8-6.4,17c1.8,7.8,3.9,22.1,4.6,31.1l1.6,16.8l9.4-1.6
		C1037,6500.9,1041.6,6500,1042.1,6499.5z M1268.9,6497.2c9.7-3.7,12.7-24.2,4.4-31.1c-4.8-3.9-4.1-5.8,6-16.8
		c5.1-5.3,8.5-10.6,7.6-11.3c-0.7-0.9-5.1-1.6-9.4-1.6c-6.7,0-9.7,1.8-15.9,9.2c-10.4,12-15.2,12.2-13.1,0.7
		c0.7-4.8,1.6-9.7,1.8-10.8c0.5-3.2-15-6-15.9-2.8c-0.5,1.4-2.3,13.3-4.4,26.7c-2.1,13.3-4.1,26.5-5.1,29.2
		c-1.2,4.4-0.2,5.1,9.9,6.4c6,0.9,12.2,1.8,13.3,2.3C1252.1,6498.8,1265,6498.6,1268.9,6497.2z M1136,6489.1
		c16.1-5.1,22.5-32,11.5-48.3c-7.4-10.8-19.1-14.7-39.1-12.7c-14,1.6-15.4,2.3-14.3,6.2c0.9,2.3,1.8,16.6,2.3,31.3
		c0.5,15,0.9,27.1,1.2,27.1C1098.5,6494,1130.7,6490.8,1136,6489.1z M1209.1,6487.1c0-5.3-0.7-5.5-10.6-4.8
		c-12,0.7-14.7-1.6-12.7-10.4c1.2-4.6,2.8-5.5,10.4-5.5c6.9,0,9.2-0.9,10.1-4.4c1.6-6.2,0-7.1-10.4-7.1c-8.5,0-8.7-0.2-8.7-7.8
		c0-9.2,1.8-10.4,15.9-8.1c5.8,0.9,10.8,1.4,11,1.2c0.2,0-0.2-3-0.9-6.4l-1.2-6.4h-20.2h-20l-1.4,27.1c-0.7,14.7-2.1,29.2-2.8,32
		c-1.6,4.8-0.9,5.1,17.5,5.8C1210,6493.3,1209.1,6493.3,1209.1,6487.1z M1309.2,6440.8c-4.4-10.6-9.2-8.5-9.2,3.7
		c0,8.7,0.9,10.8,5.3,12.4c4.4,1.6,5.1,1.2,5.8-3.7C1311.5,6450,1310.6,6444.5,1309.2,6440.8z"/>
	<path class="st1" d="M988.7,7888.9c-1.8-18.2-2.1-44.4-0.5-44.4c4.4,0,24.2,5.3,24.2,6.4c0,1.4-20.7,51.5-21.9,52.9
		C990.3,7904.1,989.4,7897.4,988.7,7888.9z"/>
	<path class="st1" d="M1453.5,7838l-8.3-15.6l10.4-5.1c5.5-2.8,12-5.1,14.3-5.1c11,0,20.7,16.3,15.9,26.7
		c-1.8,4.6-16.8,14.7-21.6,14.7C1462.9,7853.7,1458.3,7846.6,1453.5,7838z"/>
	<path class="st1" d="M1424.2,7780.3c-6.7-13.8-7.1-16.6-4.6-19.8c4.6-5.8,15-10.4,22.8-10.4c10.8,0,21.2,16.1,17.5,27.4
		c-1.2,3.7-22.8,18.6-26.9,18.6C1432.5,7796.2,1428.6,7789,1424.2,7780.3z"/>
	<path class="st2" d="M1069,7707.1c-0.7-3.7-1.8-14.5-2.8-24.2l-1.4-17.7l-9.7-1.4c-19.6-3.2-56.1-12.7-78.9-20.2l-23.5-8.1
		l-14.3,19.3l-14.5,19.3l-6.9-4.1c-3.9-2.3-29.2-17-56.4-32.9c-26.9-15.6-49.5-29.7-50.2-31.1c-0.5-1.4,3.2-11,8.3-21.6l9-19.1
		l-40.5-39.8c-22.3-22.1-41.2-40-42.1-40s-10.6,4.1-21.4,9.2l-19.8,9l-22.8-38.4c-40-68.1-44.6-76.6-42.6-78.5
		c1.2-0.9,9.7-7.4,18.9-14c9-6.7,16.6-12.9,16.6-13.6c0-0.9-2.5-8.3-5.8-16.3c-7.8-19.8-14.7-44.6-20.5-73.6l-5.1-24.2l-23.9-2.8
		c-13.3-1.4-24.4-2.8-24.6-2.8c-0.5-0.2-0.7-31.3-0.7-69v-68.8l15.6-1.6c8.5-0.7,19.6-2.3,24.4-3l9.2-1.6l5.3-26.5
		c3-14.5,10.1-40.3,15.9-57.3c5.5-17,9.9-31.1,9.7-31.3c-0.5-0.2-8.7-6.4-18.4-13.6c-9.9-7.1-17.9-13.6-17.9-14.3
		c0-0.7,14.7-26.5,32.9-57.5c23.2-39.8,33.6-55.9,36.1-55.2c1.8,0.5,7.1,2.5,11.7,4.6l8.5,3.5l27.6-26.2
		c15.2-14.5,28.5-26.5,29.7-26.5c0.9,0,17.5,6.7,36.6,14.7c110.4,46.9,205.7,59.4,256.8,33.4c4.6-2.3,14.7-11.7,22.5-20.9
		c15.2-17.9,29.9-29.4,38-29.4c8.3,0,25.5,13.1,38.2,29c6.4,8.1,16.1,17.3,21.2,20.5c37.3,21.6,111.8,18.4,196.5-9
		c25.8-8.5,73.9-27.4,90.2-35.7l8.5-4.4l14.7,14c8.3,7.6,21.2,20,29,27.6l14,13.3l10.6-5.1c6-3,11-4.8,11.7-4.1
		c2.5,2.8,65.8,111.1,65.8,112.7c0,0.9-8.1,8.1-17.7,15.4c-9.9,7.4-17.7,15-17.5,16.8c0.5,1.8,4.6,15.2,9.7,29.7
		c5.1,14.5,11.7,38.9,14.7,54.1l5.5,27.6l9,1.4c5.1,0.9,15.9,2.3,24.6,3.2l15.4,1.6v68.6c0,63.5-0.2,68.8-3.9,69.9
		c-2.3,0.5-12.4,1.8-22.5,2.8c-10.1,0.7-19.6,2.5-20.9,3.7c-1.6,1.2-3.5,6.9-4.4,12.9c-2.5,17.7-12.2,54.3-20.7,78.2
		c-4.4,12.2-8.1,22.3-8.1,22.5c0,0,8.3,6.2,18.4,13.6c10.1,7.4,18.4,14.5,18.4,15.4c0,1.1-12.2,22.3-26.9,47.4
		c-14.7,24.8-29.2,49.7-32.4,55.2c-3,5.3-6.7,9.7-8.3,9.7s-10.8-3.7-20.5-8.1c-9.7-4.4-18.9-8.1-20.7-8.1c-1.8,0-6,3.5-9.2,7.6
		c-7.4,9.4-40.3,42.6-57.3,57.5c-7.4,6.2-13.3,12.9-13.3,14.5s3.7,11.3,8.5,21.6c5.1,11,7.6,19.3,6.2,20.7
		c-1.8,1.8-111.1,66.7-112.3,66.7c-0.2,0-6.7-8.3-14-18.4s-15-18.4-17-18.4c-1.8,0-15.9,4.1-31.1,9c-15.4,5.1-38.7,11.3-51.8,14
		c-13.3,2.8-24.8,5.3-25.5,5.8c-0.9,0.7-2.3,9-3.2,18.9s-2.3,20.2-3,23.2l-1.2,5.1h-67.4h-67.4L1069,7707.1z M1183.8,7616.7
		c133.4-14,255.1-87.9,328.5-199c17.3-26.2,40.5-73.6,50.8-103.8c4.4-12.7,10.8-37,14.5-54.1c6.2-29.4,6.4-33.6,6.4-89.5
		c-0.2-52-0.7-61.4-5.3-82.8c-17.3-80.1-44.9-139.7-92.3-198.1c-7.4-9.4-17.7-20.9-22.5-25.5l-8.7-8.7l-18.4,7.1
		c-78.2,30.6-161.5,39.3-212.8,22.3c-20.7-6.9-32-14.5-46-31.3c-15.6-18.6-30.8-30.4-39.6-30.4c-9.9,0-24.8,11.5-40.7,30.6
		c-23.2,28.8-51.5,39.1-107.2,39.1c-47.9,0-92.3-8.5-145.2-28.1l-25.1-9.2l-7.6,7.4c-30.8,29.4-69.7,89.5-90.9,140.8
		c-49.5,119.9-40.7,265.3,22.5,381.5c57.5,105.1,155.5,183.8,270.1,216.5c20.7,6,65.3,14.5,83.1,15.9
		C1119.6,7619.2,1164,7618.8,1183.8,7616.7z"/>
	<path class="st1" d="M1075.5,7594.9c-131.4-19.3-246.6-98.5-312.4-214.7c-21.2-37.5-37-81-46.7-127.9c-5.5-26.9-6.2-35.2-6.2-78.5
		c0-37,0.9-53.6,4.1-71.3c14.7-81,52-158.3,102.8-213.7l10.6-11.7l18.2,6.7c53.1,19.1,96.6,27.6,142.4,27.6
		c56.4,0,85.4-9.9,108.4-37.3c14.7-17.5,29-29.9,37-31.7c11-2.8,23,6,51.8,37.7c20.2,22.5,49.2,31.3,101.9,31.3
		c46.9-0.2,85.6-7.6,139.7-26.7l19.8-6.9l9,9.7c56.6,63,94.3,144.3,105.4,228.5c21.4,163.3-51.8,322.8-189.8,413.4
		c-53.8,35.2-118.3,59.1-180.6,66.5C1163.1,7599.2,1101.5,7598.5,1075.5,7594.9z M1171.4,7376.1l4.8-4.8l5.3,5.3l5.5,5.5h114.6
		c122.4,0,128.6-0.5,150.7-11.7c13.6-6.9,29.9-24.2,37.7-40l6.7-13.8l0.7-52.7l0.7-52.9l-83.5-83.5c-69.7-69.7-84.4-83.5-90-83.5
		c-10.4,0-33.8,24.2-33.8,35c0,1.6,34.3,37,75.9,78.9l75.9,75.9v33.6c0,31.1-0.5,34.3-5.3,41.2c-2.8,4.4-8.7,9.9-13.1,12.4
		c-7.8,4.6-12,4.8-124.2,5.5c-103.1,0.7-116.6,1.2-120.1,4.4c-3.9,3.5-4.4,3.5-7.4-0.7c-3-4.1-7.6-4.4-72-5.5l-68.6-1.1l-0.5-120.8
		c-0.5-141.5,2.3-128.8-28.5-128.8c-29.9,0-27.4-11.7-27.4,130.4v120.3H925h-50.6v-127.9c0-92,0.7-130.7,2.8-137.1
		c1.6-5.8,5.8-11.5,10.8-15.2l7.8-6.2l114.1-0.7c107.9-0.5,114.6-0.2,122.2,3.7c15.4,8.3,17.3,14.7,17.9,62.8l0.9,42.8l70.6,70.4
		c55.7,55.7,71.8,70.6,76.4,70.6c4.4,0,9.9-4.1,20-14.7c7.8-8.1,14.3-16.3,14.3-18.4c0-4.8-6-11.3-71.3-76.2l-55.4-55.2l0.7-33.8
		c0.7-37.3,2.1-41.2,17.9-51.8l7.6-5.3H1361c149.1,0,136.4,2.1,138.5-23.5c1.6-19.6-2.8-30.6-13.1-32.7c-4.1-0.7-61.4-1.4-127.5-1.4
		c-94.1,0-123.1,0.7-135.1,3.2c-17,3.7-30.1,9.7-40.7,18.4l-6.9,6l-13.3-8.1c-23.2-14-20.9-13.8-151.6-13.8H891.6l-14.7,5.5
		c-19.8,7.6-39.1,25.5-49,45.8l-7.6,15.4l-0.5,162.2c-0.5,89.3,0.2,163.6,1.4,165.2c1.2,1.8,5.5,4.1,9.7,5.1
		c4.4,0.9,81.7,1.6,171.6,1.4C1166.1,7380.9,1166.3,7380.9,1171.4,7376.1z"/>
	<path class="st2" d="M834.6,7364.3c-2.5-2.5-1.8-293.1,0.7-306.5c3.2-17.7,8.7-27.6,22.3-41c9.9-9.7,15.4-13.1,27.8-16.8
		c15-4.6,20-4.8,131.6-4.1l116.2,0.7l12.9,6c7.1,3.5,17,9.9,22.1,14.5l9.2,8.3l7.1-9.2c4.6-5.5,13.3-11.7,22.8-16.6l15.6-7.6h130
		h130l0.7,12l0.7,12l-128.4,0.7l-128.4,0.7l-10.4,5.8c-5.5,3.2-13.3,10.1-17.3,15.6l-6.9,10.1l-0.7,40.5l-0.7,40.7l61.2,61
		c33.6,33.6,61,62.1,61,63.3c0,1.4-3.5,6-7.8,10.1l-8.1,7.8l-66.3-65.8l-66.3-65.8l-1.2-43.5c-1.2-42.6-1.2-43.5-7.6-52.9
		c-3.5-5.3-10.6-12.4-15.9-15.9l-9.7-6.4l-113.9-0.7c-78.2-0.5-116.9,0-122.9,1.8c-11,3.2-23.5,14.3-29.9,26.2
		c-5.1,9.4-5.1,9.7-5.1,149.8v140.3H925h65.6l0.7-124.7l0.5-124.9h12.7h12.7v125.4v125.4h71.1c45.3,0,71.8,0.9,72.7,2.3
		c0.7,1.4,0.7,6.9-0.2,12.7l-1.4,10.4H997.7C908.7,7365.9,835.3,7365.3,834.6,7364.3z"/>
	<path class="st2" d="M1192.3,7354l0.7-12.2l115.3-1.2l115.3-1.2l11-6.9c8.1-4.8,12.9-10.4,17-18.4c5.5-10.6,6-14,6.7-48.3l0.9-36.8
		l-76.2-75.9l-76.2-75.9l9.2-9.2l9.2-9.2l79.6,79.4l79.4,79.4l-0.7,46c-0.7,45.1-0.9,46.2-7.1,59.1c-8.1,16.3-25.3,32.2-42.1,38.4
		c-12.2,4.6-17.3,4.8-127.7,4.8h-115L1192.3,7354z"/>
	<path class="st1" d="M965.3,6821.4c-47.9-6-105.4-22.1-155.8-43.9l-31.3-13.6l-24.2,22.8c-13.3,12.4-26,22.5-28.1,22.5
		s-6.9-1.6-10.8-3.7l-7.1-3.7l15.9-15.4c42.8-41,61.4-57.7,78.7-70.2l18.9-13.3l20.2,6.2c21.6,6.7,38.9,14.7,49.9,23
		c12.4,9.2,31.5,17.7,53.8,23.5c18.9,5.1,27.1,6,56.6,6c23.9,0,39.6-1.1,51.3-3.7c20.5-4.8,47.6-15.6,58.2-23.7
		c49.5-37,147.2-46,213.7-19.8c15.6,6.2,18.9,7.8,38.7,20.5c6.4,4.4,17,9.9,23.5,12.7l11.3,4.6l11-6.4c6-3.7,13.8-7.8,17.5-9.4
		c3.5-1.6,6.2-3.2,6.2-3.9c0-0.5-8.1-2.8-17.7-4.8c-24.6-5.3-44.4-13.6-67.6-28.1c-29-17.9-49.9-24.6-90-28.3
		c-50.2-4.8-96.9,5.5-132.1,29c-36.1,23.9-82.4,34.7-136.7,32.4c-44.2-2.1-78-12.4-112-34.5c-9-6-17.5-10.8-18.9-10.8
		c-1.2,0-2.8-0.9-3.5-2.1c-1.8-2.8,12.7-11.7,18.6-11.7c2.3,0,12.4,5.1,22.5,11.5c9.9,6.2,24.4,13.6,32,16.1
		c59.8,19.8,139.4,13.1,181.5-15.4c58.7-40,146.6-47.9,219.7-19.6c6.4,2.5,20.2,9.9,30.1,16.3c10.1,6.4,23.5,13.8,29.9,16.3
		c15,5.8,54.1,13.8,68.1,13.8c9,0,13.1,1.6,22.8,8.5c13.1,9.7,86.5,78.5,86.5,81c0,1.2-4.4,3.5-9.7,5.5l-9.7,3.9l-23.5-23
		c-12.7-12.7-24.4-23-26-23c-1.4,0-6.4,1.8-11.3,4.4c-16.6,8.3-73.2,29.9-93.6,35.4c-49.7,13.8-86.7,18.9-121.9,17
		c-44.9-2.3-68.6-12.2-88.1-36.6c-18.2-22.8-28.1-29.4-42.8-29.4c-12.4,0-24.2,8.1-41.4,29c-17.9,21.6-34.3,29.9-68.1,35.4
		C1016.6,6822.7,980.2,6823.2,965.3,6821.4z M1311.5,6781.6c0-6-55.9-14.7-83.7-13.1c-11.3,0.7-21.4,2.3-22.5,3.5
		c-1.4,1.4,4.1,3.7,14.7,5.8c9.2,2.1,18.9,4.1,21.4,4.6C1250.8,6784.3,1311.5,6783.9,1311.5,6781.6z M1362.8,6770.8
		c6-2.1,10.8-4.6,10.8-5.3c0-0.7-6-4.6-13.1-8.7c-7.4-4.1-18.2-10.6-24.2-14.3c-43.3-26.7-133-30.1-184.7-7.1
		c-9.4,4.1-13.8,9.4-8.1,9.4c1.4,0,6.7,2.8,11.7,6.2c9,6,9.9,6,22.3,3.5c7.1-1.4,23.7-3.9,36.6-5.3c38.4-4.4,88.1,3.2,120.6,18.2
		c8.1,3.9,15.2,7.1,15.9,7.1C1351.3,6774.7,1356.6,6772.8,1362.8,6770.8z"/>
	<path class="st1" d="M948.9,6677.8c-21.6-4.8-47.4-14-48.5-17.3c-0.5-1.2,4.1-4.1,10.1-6.4c10.6-4.4,10.6-4.4,29.7,0.7
		c61.9,16.1,127.7,8.1,172.8-21.2c20.5-13.3,23.7-15,42.3-21.2c14.5-5.1,17.5-5.3,37-3.2c20.5,2.1,62.1,8.5,63.5,9.9
		c0.2,0.5-13.1,1.4-29.9,2.1c-45.1,2.1-71.8,9.9-101.5,29.9c-17.7,12-40,20.9-67,26.7C1028.3,6684.2,976.3,6684.2,948.9,6677.8z"/>
	<path class="st1" d="M1378.2,6665.8c-18.6-8.1-40.3-21.6-29.9-18.9c3.2,0.9,17.3,7.1,31.1,13.8
		C1407,6674.1,1406.1,6678,1378.2,6665.8z"/>
	<path class="st1" d="M979.1,6632.3c-6-1.4-2.5-2.8,23-8.7c43-10.6,109.3-19.6,109.3-15c0,3-27.8,13.3-50.6,18.9
		C1039.8,6632.5,991,6635.5,979.1,6632.3z"/>
	<path class="st1" d="M1784.5,6936.6c-6.7-6.4-4.6-11.7,6-14.3c5.3-1.4,10.4-2.1,11.5-1.4c3.7,2.3,1.6,12.2-3.2,15.6
		C1792.3,6941.2,1788.9,6941.2,1784.5,6936.6z"/>
	<path class="st1" d="M639,6676c-9.4-6-9.7-6.7-5.1-11.7c4.1-4.6,4.1-4.6,9.4,3.9C651.4,6681.5,650.5,6683.3,639,6676z"/>
	<path class="st1" d="M692.4,6639.6c-9.7-11.5-9.7-11.7-3.5-15.6c5.5-3.7,6.4-3.7,11.7-0.2c6.2,4.1,7.6,12.4,3,17
		C699.8,6644.7,696.3,6644.2,692.4,6639.6z"/>
	<path class="st1" d="M1523.2,6588.8c-5.1-3.9-5.1-4.4-1.4-11.3c5.1-9.9,7.8-11,13.1-6.2c5.8,5.1,4.8,14.3-1.6,18.6
		C1528.9,6592.7,1527.8,6592.5,1523.2,6588.8z"/>
	<path class="st1" d="M789.7,6560l-7.6-7.8l5.8-2.5c3.2-1.4,6.2-1.8,6.9-0.9c1.4,2.5,4.4,18.9,3.2,18.9
		C797.5,6567.6,793.6,6564.2,789.7,6560z"/>
	<path class="st1" d="M850,6536.3c-4.1-11-2.8-14.5,6.2-14.7c8.5,0,15,15,8.5,20C856.7,6547.8,853.9,6546.7,850,6536.3z"/>
	<path class="st1" d="M911.6,6514c-3.9-10.8-3.5-12.4,3.5-14c9.9-2.5,18.2,10.8,11,17.9C920.2,6523.9,914.6,6522.3,911.6,6514z"/>
	<path class="st1" d="M1367.4,6498.1c0.5-7.4,1.8-10.1,4.8-10.6c7.6-1.6,9,3.2,3.2,12c-2.8,4.6-6,8.3-6.9,8.3
		S1367.2,6503.4,1367.4,6498.1z"/>
	<path class="st1" d="M1244.1,6485.5c-0.5-0.9-0.5-5.8,0-10.4c0.9-7.1,2.1-8.7,6.2-8.7c8.1,0,11,3.5,10.1,11.7
		c-0.7,6.9-1.6,7.8-8.1,8.5C1248.5,6487.1,1244.8,6486.4,1244.1,6485.5z"/>
	<path class="st1" d="M1112.7,6462.9c-0.9-10.8-0.9-20.7-0.2-21.9c2.1-3.5,16.3-2.8,19.3,0.9c1.6,1.8,3.5,9,4.1,15.9
		c1.2,11.5,0.7,13.3-4.6,18.6c-3.2,3.2-8.5,6-11.5,6C1114.6,6482.5,1114.1,6481.6,1112.7,6462.9z"/>
</g>
</svg>
