<?xml version="1.0" encoding="utf-8"?>
<!-- Generator: Adobe Illustrator 24.1.2, SVG Export Plug-In . SVG Version: 6.00 Build 0)  -->
<svg version="1.1" id="Layer_1" xmlns:serif="http://www.serif.com/"
	 xmlns="http://www.w3.org/2000/svg" xmlns:xlink="http://www.w3.org/1999/xlink" x="0px" y="0px" viewBox="0 0 595.3 841.9"
	 style="enable-background:new 0 0 595.3 841.9;" xml:space="preserve">
<style type="text/css">
	.st0{fill:#FFFFFF;}
	.st1{fill:#1B469C;}
	.st2{fill:#E82229;}
</style>
<circle class="st0" cx="298.3" cy="418.1" r="295.2"/>
<g transform="translate(0.000000,802.000000) scale(0.100000,-0.100000)">
	<path class="st1" d="M2740.4,6787c-40.6-3.3-98.5-10.8-128.3-15.7c-29.8-4.1-89.4-14.1-132.4-20.7
		c-377.4-60.4-792.9-224.3-1129.8-446.9c-96-63.7-244.2-173.8-301.3-225.1c-326.9-293-528.9-552.9-715.9-922
		c-154.8-305.4-249.1-615-296.3-976.7c-24-176.3-25.7-499.1-3.3-666.3c34.8-269,107.6-559.5,187.1-749.1
		c14.1-33.9,30.6-75.3,36.4-91c5.8-15.7,38.1-82.8,71.2-148.2c86.9-173.8,197-353.4,289.7-472.6c23.2-29.8,57.1-74.5,76.1-99.3
		c61.2-81.9,352.6-364.2,453.6-439.5c361.7-271.5,710.2-442.8,1096.7-541.3c261.5-66.2,456.9-90.2,736.6-91
		c338.5,0,604.2,42.2,927,147.3c207.7,67.9,474.3,192.9,645.6,302.1c18.2,11.6,48,30.6,66.2,42.2
		c134.9,86.9,325.3,240.9,448.6,363.4c94.4,94.4,256.6,280.6,300.4,346c97.7,144.8,128.3,191.2,161.4,247.5
		c53,88.6,162.2,302.1,186.2,364.2c9.9,27.3,25.7,68.7,34.8,91c49.7,129.1,84.4,244.2,121.7,401.4c52.1,222.6,68.7,375.8,70.4,637.3
		c0.8,250-8.3,344.3-53.8,587.7c-28.1,145.7-89.4,352.6-152.3,513.2c-86.9,221.8-280.6,562-407.2,715.9
		c-247.5,301.3-350.1,398.1-668.8,632.4c-107.6,78.6-445.3,258.2-587.7,312c-248.3,93.5-470.1,153.9-653.9,178
		c-40.6,5-92.7,13.2-115.9,16.6C3242.8,6790.3,2828.1,6795.2,2740.4,6787z M3166.7,6651.2c53-5,100.1-12.4,105.9-16.6
		c5.8-3.3,9.9-23.2,9.9-43.9c0-33.9,31.5-242.5,37.2-249.1c0.8-1.7,34.8,57.9,75.3,132.4c39.7,74.5,72.8,135.7,74.5,137.4
		c0.8,1.7,29.8-3.3,64.6-9.9c33.9-7.4,82.8-13.2,107.6-13.2c24.8,0,47.2-3.3,49.7-7.4c2.5-4.1-0.8-20.7-7.4-38.1
		c-18.2-41.4-62.9-355.9-64.6-445.3c-0.8-69.5-1.7-72.8-18.2-68.7c-9.1,2.5-52.1,9.1-95.2,14.9c-43,5-79.5,9.9-81.1,11.6
		c-1.7,0.8,3.3,21.5,9.9,45.5c7.4,24,20.7,95.2,29.8,158.9c9.1,63.7,19,125,21.5,137.4c5.8,28.1-49.7-64.6-126.6-211.1l-60.4-116.7
		l-39.7,4.1c-21.5,1.7-40.6,5-41.4,6.6c-3.3,1.7-49.7,223.5-68.7,328.6c-5,26.5-10.8,47.2-11.6,45.5c-5-4.1-46.4-287.2-48-322
		l-0.8-33.9l-29.8,5c-15.7,2.5-49.7,6.6-74.5,9.1c-69.5,8.3-67.9,5.8-49.7,57.1c32.3,94.4,88.6,432.9,79.5,478.4l-5,25.7l30.6-5.8
		C3057.4,6664.5,3114.5,6657,3166.7,6651.2z M2581.5,6570.1c39.7-92.7,125.8-265.7,180.4-364.2c27.3-49.7,47.2-93.5,44.7-97.7
		c-2.5-5-17.4-8.3-31.5-8.3c-14.9,0-54.6-7.4-88.6-16.6s-62.9-16.6-62.9-16.6c-0.8,0-9.1,22.3-19,50.5c-10.8,27.3-23.2,51.3-29,53.8
		c-5,1.7-39.7-3.3-75.3-11.6l-66.2-14.9v-55.5v-55.5l-29-5c-15.7-2.5-53-9.9-81.9-16.6c-29-6.6-54.6-9.9-57.1-7.4
		c-2.5,1.7,1.7,30.6,9.1,63.7c11.6,54.6,44.7,372.5,49.7,474.3l1.7,40.6l70.4,10.8c38.9,5,86.9,15.7,107.6,22.3
		c20.7,6.6,40.6,11.6,43.9,12.4C2552.5,6629.7,2566.6,6602.4,2581.5,6570.1z M1926.8,6220c-3.3-271.5-5-264,50.5-240.9
		c47.2,19,110.9,64.6,122.5,85.3c5.8,10.8,13.2,19,16.6,19c6.6,0,40.6-103.5,40.6-122.5c0-5-19.9-17.4-43-28.1
		c-70.4-29.8-306.2-147.3-330.2-164.7c-12.4-8.3-24.8-15.7-27.3-15.7c-2.5,0-3.3,96-0.8,213.5c3.3,116.7,1.7,230.1-1.7,251.6
		l-6.6,38.9l-66.2-32.3c-36.4-18.2-74.5-43-85.3-54.6c-10.8-12.4-20.7-20.7-22.3-18.2c-1.7,1.7-14.9,28.1-28.1,58.8l-25.7,56.3
		l60.4,26.5c72.8,31.5,312.9,152.3,323.6,163.1C1927.6,6479.9,1929.3,6459.2,1926.8,6220z M4197.1,6371.5
		c153.9-68.7,202.8-114.2,202.8-186.2c0-86.9-74.5-149-153.1-127.5l-31.5,8.3l30.6-31.5c69.5-71.2,63.7-152.3-17.4-213.5
		c-25.7-19.9-37.2-23.2-85.3-23.2c-59.6,0-39.7-8.3-269,110.9c-53.8,28.1-100.1,53-102.6,55.5c-1.7,1.7,5.8,14.1,18.2,26.5
		c38.9,40.6,206.9,371.6,216.9,427.9c3.3,18.2,8.3,35.6,9.9,38.9c1.7,3.3,19-3.3,38.1-15.7
		C4073.8,6429.4,4137.5,6397.9,4197.1,6371.5z M1401.2,5907.1c95.2-117.5,134.1-162.2,192.9-217.7c19.9-19.9,34.8-37.2,33.1-38.9
		c-2.5-1.7-29.8-21.5-62.1-44.7c-31.5-23.2-67-52.1-77.8-63.7l-19-20.7l-18.2,34.8c-22.3,45.5-207.7,274.8-280.6,349.3
		c-31.5,31.5-53.8,58.8-48.8,60.4c14.9,5,111.7,81.1,134.1,104.3l19.9,22.3l19.9-38.1C1305.2,6032.9,1353.2,5966.7,1401.2,5907.1z
		 M4917.2,5864.1c41.4-34.8,75.3-66.2,77-69.5c0.8-2.5-18.2-25.7-43.9-50.5c-39.7-38.9-45.5-42.2-50.5-28.1
		c-7.4,20.7-120,135.7-132.4,135.7c-5.8,0-24.8-17.4-43-39.7l-33.1-38.9l55.5-48c29.8-26.5,60.4-51.3,67-55.5
		c9.1-5.8,3.3-15.7-29-51.3c-48.8-52.1-51.3-53.8-57.9-32.3c-2.5,9.1-28.1,37.2-55.5,62.9l-51.3,45.5l-25.7-24.8
		c-13.2-13.2-32.3-35.6-40.6-50.5l-14.9-25.7l48-44.7c27.3-24.8,66.2-53.8,88.6-63.7c21.5-9.9,38.9-19.9,38.9-22.3
		c0-5.8-88.6-74.5-95.2-74.5c-3.3,0-43.9,36.4-90.2,80.3c-45.5,43.9-110.9,102.6-144,129.9l-61.2,49.7l32.3,25.7
		c38.1,30.6,43,34.8,149.8,150.6c97.7,105.1,162.2,183.7,180.4,218.5l12.4,24.8l72-70.4C4810.4,5959.3,4876.6,5898.9,4917.2,5864.1z
		 M3208,5946.9c567-60.4,1080.1-340.2,1433.5-783c238.4-298,386.5-637.3,446.1-1023c25.7-162.2,25.7-437,0.8-604.2
		c-85.3-567-374.9-1056.1-826.9-1396.3C3631,1665.3,2788.4,1579.2,2070,1916c-412.2,192.9-774.7,543-979.1,944.4
		c-105.1,206.9-163.9,383.2-210.2,628.2c-17.4,90.2-19,123.3-18.2,351.8c0,240.9,0.8,257.4,22.3,368.3
		c72.8,370,216,681.2,442.8,964.3c206.1,257.4,508.2,485.9,813.6,615C2474.7,5930.3,2848.8,5985.8,3208,5946.9z M953.4,5689.5
		c120-106.8,345.1-268.2,374.1-268.2c6.6,0-6.6-23.2-29.8-51.3c-22.3-29-47.2-64.6-56.3-78.6c-8.3-14.9-19-27.3-24-27.3
		c-4.1,0-96,10.8-202.8,24c-106.8,13.2-195.3,22.3-197,21.5c-5.8-5,220.2-164.7,253.3-179.6c38.1-17.4,38.1-27.3,2.5-59.6
		c-9.1-8.3-29-33.9-43-55.5l-25.7-40.6l-59.6,53c-110.1,97.7-319.5,249.1-372.5,269.8l-21.5,8.3l48,60.4c26.5,33.9,57.1,74.5,67,91
		c9.9,16.6,24,30.6,29.8,30.6c9.1,0,262.4-35.6,317-44.7c9.9-1.7,17.4,0,16.6,4.1c-4.1,12.4-189.5,139.1-218.5,149.8
		c-15.7,5-28.1,12.4-28.1,15.7s13.2,21.5,29.8,41.4c16.6,19.9,40.6,52.1,54.6,72l24.8,35.6l19-25.7
		C921.1,5721.7,940.2,5701,953.4,5689.5z M5214.3,5543.8c5.8-10.8,38.9-63.7,72.8-118.4c33.9-54.6,82.8-129.1,109.3-164.7
		c25.7-36.4,46.4-67.9,46.4-71.2s-34.8-8.3-76.1-11.6c-79.5-5.8-337.7-34.8-384.9-42.2c-19.9-3.3-27.3-9.1-27.3-21.5
		c0-33.1,72-125.8,115-148.2c26.5-13.2,28.1-15.7,13.2-21.5c-9.1-3.3-36.4-14.9-61.2-25.7c-24-9.9-47.2-19-50.5-19
		c-3.3,0-42.2,57.1-86.1,126.6c-43.9,68.7-100.1,154.8-125,189.5l-44.7,62.9l51.3,5c28.1,2.5,97.7,9.1,154.8,14.1
		c103.5,9.1,268.2,29.8,287.2,36.4c13.2,4.1-47.2,103.5-86.1,140.7l-27.3,26.5l48,29.8c25.7,16.6,49.7,29.8,53,30.6
		C5199.4,5562,5207.7,5553.7,5214.3,5543.8z M419.6,5002.5c13.2-16.6,15.7-17.4,213.5-86.9c217.7-76.1,245-99.3,243.3-206.1
		c-1.7-96.8-67-258.2-124.2-305.4c-53.8-44.7-65.4-43-280.6,27.3c-105.9,34.8-206.1,62.9-221.8,62.9c-16.6,0-29.8,1.7-29.8,3.3
		s9.1,23.2,19.9,47.2c11.6,24.8,26.5,69.5,33.9,100.1l14.1,55.5l43-24c57.1-32.3,305.4-115.9,344.3-115.9
		c33.1,0,58.8,20.7,73.7,60.4c14.1,37.2,10.8,84.4-6.6,100.1S432.8,4836.9,379,4846c-29,5-34.8,8.3-30.6,19
		c18.2,43.9,45.5,127.5,45.5,138.2C393.9,5019.9,405.5,5019,419.6,5002.5z M5582.7,4877.5c9.9-46.4,58.8-197.8,89.4-278.1
		c13.2-33.1,19-58.8,14.1-62.9c-6.6-5.8-100.1-33.9-113.4-33.9c-3.3,0-4.1,8.3-1.7,19c5,19-32.3,161.4-45.5,174.6
		c-5,5-27.3,1.7-57.9-7.4c-27.3-8.3-49.7-15.7-49.7-15.7c0-9.9,44.7-135.7,50.5-140.7c15.7-16.6,5.8-27.3-39.7-41.4
		c-26.5-8.3-52.1-16.6-57.1-19c-5.8-1.7-13.2,16.6-19,44.7c-12.4,62.9-33.9,118.4-45.5,117.5c-25.7-1.7-91-29.8-99.3-42.2
		c-11.6-19,20.7-117.5,53.8-163.9c14.1-19,23.2-36.4,20.7-39.7c-5.8-5-74.5-17.4-105.9-17.4c-16.6-0.8-23.2,3.3-23.2,14.1
		c0,19-66.2,231.8-94.4,300.4c-11.6,29.8-21.5,56.3-21.5,58.8c0,2.5,21.5,6.6,48,8.3c54.6,5.8,386.5,113.4,436.2,143.2
		c18.2,9.9,37.2,19,43,19.9C5569.4,4916.4,5577.7,4899,5582.7,4877.5z M561.9,4090.4c43.9-0.8,80.3-5,80.3-8.3
		c0-3.3-26.5-24-58.8-46.4c-32.3-21.5-59.6-43.9-62.1-49.7c-1.7-5,7.4-40.6,20.7-79.5c13.2-38.9,22.3-71.2,21.5-72.8
		c-1.7-1.7-33.1,18.2-69.5,43.9l-67.9,47.2l-62.1-47.2c-34.8-25.7-64.6-45.5-66.2-43c-2.5,1.7,5.8,31.5,17.4,66.2
		c11.6,34.8,20.7,69.5,20.7,78.6c0,9.9-20.7,29.8-57.9,55.5c-31.5,22.3-57.9,43-57.9,47.2c0,3.3,34.8,6.6,77.8,6.6h77.8l27.3,81.1
		l26.5,80.3l26.5-78.6l26.5-78.6L561.9,4090.4z M5562,4163.2l23.2-73.7l83.6-2.5l83.6-2.5l-63.7-48c-34.8-25.7-63.7-52.1-63.7-57.9
		c0-5,9.9-38.9,21.5-74.5s19-67,16.6-69.5c-2.5-3.3-13.2,2.5-24,11.6c-9.9,9.1-38.1,29.8-61.2,47.2l-43.9,31.5l-66.2-47.2
		c-36.4-25.7-66.2-44.7-66.2-41.4c0,2.5,9.9,38.9,22.3,79.5c19,64.6,20.7,76.1,10.8,81.9c-6.6,4.1-36.4,24.8-66.2,47.2l-53.8,39.7
		l83.6,2.5l82.8,2.5l24,73.7c13.2,41.4,26.5,74.5,29,74.5C5537.1,4237.7,5549.6,4204.6,5562,4163.2z M501.5,3544.9l23.2-72.8
		l79.5-2.5c43.9-0.8,79.5-5.8,79.5-9.9c0-5-3.3-8.3-6.6-8.3c-4.1,0-27.3-14.9-52.1-33.9c-24.8-18.2-49.7-36.4-56.3-39.7
		c-9.1-5.8-6.6-20.7,14.9-83.6c14.1-43,24-78.6,22.3-80.3c-0.8-1.7-30.6,17.4-65.4,43c-33.9,24.8-65.4,45.5-69.5,45.5
		c-3.3,0-33.9-20.7-67.9-45.5s-62.9-43.9-64.6-43c-0.8,1.7,9.1,35.6,22.3,76.1c14.9,46.4,20.7,77.8,16.6,82.8
		c-4.1,5-32.3,25.7-61.2,46.4c-29.8,19.9-54.6,38.9-54.6,43c0,3.3,34.8,5.8,77.8,5.8h77.8l26.5,79.5c14.9,43,28.1,77,30.6,75.3
		C475.9,3620.2,488.3,3585.5,501.5,3544.9z M5521.4,3540.8l22.3-72l82.8-2.5l82.8-2.5l-66.2-48l-67-47.2l24.8-72
		c13.2-39.7,23.2-75.3,22.3-78.6c-1.7-4.1-29.8,14.1-63.7,38.9s-64.6,45.5-68.7,45.5c-4.1,0-32.3-18.2-62.1-41.4
		c-77.8-58.8-79.5-58.8-48,33.1c11.6,33.1,20.7,64.6,20.7,69.5s-29,29.8-64.6,54.6l-63.7,45.5l81.9,4.1l82.8,4.1l24.8,76.1
		c14.1,42.2,27.3,74.5,30.6,70.4C5496.6,3615.3,5509,3580.5,5521.4,3540.8z M679.5,2993.7c19.9-54.6,21.5-66.2,11.6-72.8
		c-19-11.6-25.7-5-38.1,35.6c-10.8,38.9-10.8,38.9-36.4,29.8c-26.5-9.1-27.3-12.4-11.6-61.2c4.1-12.4,1.7-19-8.3-23.2
		c-18.2-6.6-29,0.8-29,19c0,7.4-5,20.7-10.8,29c-10.8,14.1-12.4,14.1-37.2,1.7c-14.9-7.4-26.5-15.7-26.5-18.2s7.4-19,16.6-38.1
		c17.4-36.4,15.7-48-8.3-48c-11.6,0-19.9,14.9-37.2,67c-12.4,36.4-19.9,68.7-17.4,71.2c2.5,3.3,35.6,15.7,72.8,29
		s81.1,29.8,97.7,38.1c15.7,8.3,31.5,13.2,33.9,10.8C653.8,3059.9,667.1,3029.3,679.5,2993.7z M5389,3041.7
		c11.6-10.8,20.7-25.7,20.7-33.1c0-14.1,15.7-11.6,77,9.1l31.5,10.8l-5.8-30.6c-7.4-40.6-6.6-39.7-38.1-45.5
		c-14.9-2.5-38.1-8.3-52.1-14.1c-24-9.1-24-9.9-9.1-21.5c9.1-6.6,24.8-11.6,34.8-11.6c24,0,29-9.1,23.2-41.4
		c-4.1-19-9.1-24.8-19-22.3c-62.9,17.4-204.4,59.6-206.9,61.2c-7.4,5,35.6,125,51.3,141.5C5319.5,3069.8,5362.5,3069,5389,3041.7z
		 M746.5,2805c-2.5-6.6-21.5-37.2-42.2-68.7c-19.9-32.3-35.6-58.8-33.9-60.4c1.7-1.7,28.1,9.9,58.8,25.7
		c30.6,16.6,57.9,29.8,60.4,29.8c3.3,0,9.9-9.9,15.7-21.5c9.1-19,7.4-21.5-12.4-29.8c-12.4-5-57.1-25.7-100.1-45.5
		c-42.2-19-80.3-35.6-83.6-35.6c-2.5,0-9.9,9.1-15.7,19.9c-9.9,18.2-7.4,26.5,35.6,96c26.5,42.2,45.5,77.8,43,80.3
		c-2.5,2.5-33.1-10.8-67.9-29.8s-64.6-33.1-65.4-32.3c-11.6,14.1-20.7,43-14.9,47.2c3.3,3.3,23.2,12.4,43.9,20.7
		c20.7,7.4,63.7,27.3,95.2,44.7l57.9,31.5l15.7-30.6C744.9,2829.8,749.8,2810.8,746.5,2805z M5246.6,2830.6
		c-0.8-6.6-5.8-24.8-12.4-39.7c-9.9-24.8-9.1-29,5-39.7c24.8-18.2,36.4-14.1,47.2,17.4c10.8,29.8,19,33.9,38.9,21.5
		c9.9-5.8,9.1-11.6-1.7-32.3c-18.2-35.6-17.4-39.7,12.4-50.5c32.3-11.6,34.8-9.1,48.8,33.9c14.1,44.7,12.4,43,31.5,32.3
		c16.6-8.3,15.7-10.8-13.2-78.6l-29-68.7l-54.6,26.5c-29.8,14.9-77,33.9-104.3,42.2s-50.5,15.7-52.1,15.7
		c-0.8,0.8,8.3,23.2,19.9,50.5c11.6,26.5,24.8,57.1,29,67.9C5220.1,2850.5,5249.1,2851.3,5246.6,2830.6z M5162.2,2622.9
		c-9.1-7.4-20.7-23.2-24.8-33.9c-15.7-42.2,31.5-91,90.2-92.7c28.1-0.8,38.1,3.3,54.6,22.3c10.8,13.2,19.9,30.6,19.9,39.7
		c0,19,10.8,20.7,24.8,3.3c23.2-28.1-38.9-115.9-88.6-125c-58.8-10.8-126.6,29-142.4,84.4c-9.1,32.3,8.3,97.7,32.3,123.3
		c18.2,19.9,19.9,19.9,35.6,6.6C5178.8,2637,5178.8,2636.1,5162.2,2622.9z M847.5,2612.1c23.2-11.6,59.6-67,59.6-90.2
		c0-18.2-33.1-24-38.1-7.4c-14.1,43.9-20.7,52.1-38.9,49.7c-16.6-2.5-18.2-7.4-19.9-56.3c-0.8-46.4-4.1-56.3-23.2-72
		c-11.6-10.8-28.1-19-35.6-19c-25.7,0-67,32.3-84.4,65.4c-19.9,39.7-20.7,55.5-3.3,62.1c22.3,8.3,28.1,5.8,28.1-14.9
		c0-10.8,7.4-28.1,15.7-38.9c13.2-16.6,19-18.2,31.5-10.8c12.4,7.4,14.1,18.2,12.4,55.5c-2.5,40.6-0.8,48.8,18.2,67.9
		C792.9,2626.2,815.2,2628.7,847.5,2612.1z M971.6,2440l17.4-26.5l-38.9-22.3c-21.5-13.2-62.9-41.4-92.7-64.6l-53.8-40.6l-18.2,21.5
		c-9.9,12.4-18.2,24-19,26.5c0,2.5,12.4,10.8,27.3,19c14.9,8.3,54.6,36.4,88.6,63.7c33.9,26.5,64.6,48.8,67.9,48.8
		C952.6,2466.5,962.5,2454.9,971.6,2440z M5202.8,2342.3c10.8-6.6,10.8-9.9-0.8-29.8c-13.2-21.5-13.2-21.5-107.6-20.7l-94.4,1.7
		l33.9-24c19-14.1,46.4-31.5,62.1-38.9c15.7-8.3,29.8-15.7,30.6-17.4c1.7-0.8-3.3-13.2-10.8-26.5l-14.9-24l-52.1,39.7
		c-29,21.5-70.4,49.7-91.9,62.1c-22.3,12.4-41.4,24-43,24.8c-1.7,1.7,5.8,16.6,16.6,33.1l18.2,30.6l81.9-5
		c44.7-2.5,81.1-1.7,81.1,0.8c0,3.3-19,17.4-42.2,30.6c-73.7,43.9-70.4,40.6-54.6,64.6l14.1,21.5l80.3-57.9
		C5153.9,2375.4,5195.3,2346.4,5202.8,2342.3z M1054.4,2333.2l19-21.5l-25.7-77c-13.2-43-23.2-78.6-22.3-80.3
		c1.7-1.7,25.7,18.2,53,43l49.7,44.7l17.4-18.2l18.2-19l-91.9-72.8c-50.5-39.7-91.9-71.2-92.7-70.4c-0.8,1.7-8.3,10.8-15.7,19.9
		c-13.2,15.7-12.4,21.5,14.1,103.5c15.7,47.2,27.3,86.9,25.7,88.6c-3.3,4.1-77.8-57.9-98.5-81.9c-14.1-16.6-14.9-16.6-30.6-2.5
		c-9.1,8.3-16.6,19-16.6,24s21.5,24.8,48,43.9c25.7,19.9,63.7,52.1,84.4,72.8c19.9,20.7,38.9,34.8,41.4,30.6
		C1033.7,2357.2,1044.5,2344.8,1054.4,2333.2z M4904.8,2225.6c0-2.5-10.8-14.9-24.8-28.1c-29.8-28.1-30.6-38.1-7.4-58.8
		c17.4-15.7,17.4-15.7,40.6,11.6c14.9,18.2,26.5,25.7,35.6,21.5c19.9-7.4,17.4-19.9-8.3-47.2l-23.2-24l19.9-15.7
		c26.5-22.3,42.2-17.4,66.2,19.9c15.7,24,22.3,28.1,31.5,21.5c19-16.6,11.6-34.8-35.6-85.3l-44.7-49.7l-35.6,33.9
		c-40.6,38.9-116.7,98.5-131.6,103.5c-5.8,2.5,9.1,26.5,38.1,62.1c43,52.1,50.5,57.9,63.7,49.7
		C4898.2,2234.7,4904.8,2228.9,4904.8,2225.6z M1267.1,2102.3l23.2-24l-34.8-64.6c-19-35.6-42.2-81.9-52.1-103.5
		c-9.1-22.3-19.9-39.7-23.2-39.7c-2.5,0-14.1,9.1-24.8,20.7c-17.4,18.2-18.2,22.3-8.3,45.5c9.9,24,9.1,27.3-10.8,48
		c-22.3,21.5-22.3,21.5-48,6.6c-24-14.1-25.7-14.1-41.4,0c-24,21.5-19,31.5,24,50.5c21.5,9.9,65.4,32.3,96.8,50.5
		c32.3,19,62.1,33.9,67,33.9C1239,2127.1,1253.9,2116.3,1267.1,2102.3z M4769.1,2092.3c3.3-10.8,25.7-59.6,50.5-110.1l43.9-90.2
		l-23.2-23.2l-23.2-24l-80.3,46.4c-44.7,25.7-91.9,50.5-105.1,55.5c-30.6,9.9-30.6,12.4-3.3,40.6l22.3,23.2l33.9-23.2
		c52.1-34.8,112.6-68.7,112.6-62.1c0,3.3-17.4,38.1-38.1,77.8c-37.2,71.2-38.1,72.8-23.2,90.2
		C4755,2115.5,4761.6,2115.5,4769.1,2092.3z M1478.2,1911.9c23.2-43-9.1-96-60.4-101l-26.5-2.5l-2.5-56.3l-2.5-55.5l-29,22.3
		c-28.1,23.2-29,24-24,69.5c5.8,52.1-6.6,72.8-25.7,43.9c-34.8-51.3-33.1-51.3-57.9-27.3l-21.5,22.3l54.6,67.9
		c29.8,37.2,61.2,78.6,68.7,91l13.2,23.2l53-41.4C1446.7,1945,1474,1920.2,1478.2,1911.9z M4456.2,1779.5
		c18.2-16.6,21.5-31.5,18.2-76.1c-0.8-19.9,4.1-24,49.7-40.6l51.3-18.2l-19.9-15.7c-30.6-24-44.7-24.8-80.3-6.6
		c-60.4,30.6-79.5,18.2-41.4-27.3l24-29l-24.8-18.2c-14.1-9.9-26.5-17.4-28.1-15.7s-24.8,37.2-52.1,77.8
		c-27.3,41.4-56.3,80.3-63.7,86.1s-13.2,14.1-13.2,18.2c0,4.1,24.8,24,55.5,44.7C4394.1,1800.2,4427.2,1806,4456.2,1779.5z
		 M4625.9,1686.8c2.5-45.5-11.6-48-29-5c-14.1,32.3-14.1,35.6-0.8,49.7c12.4,14.1,14.9,14.1,21.5,2.5
		C4620.9,1727.3,4625,1705.8,4625.9,1686.8z M1796.8,1712.4c24-14.1,29-21.5,25.7-35.6c-11.6-39.7-38.1-173.8-38.1-192
		c0-23.2-8.3-24.8-42.2-7.4c-21.5,11.6-24,16.6-19.9,40.6c5,24,2.5,29-22.3,44.7l-27.3,18.2l-18.2-20.7
		c-18.2-20.7-19.9-20.7-44.7-7.4l-25.7,13.2l72.8,67c39.7,37.2,78.6,74.5,85.3,82.8C1757.9,1734,1760.4,1733.1,1796.8,1712.4z
		 M1486.5,1688.4c0-5-16.6-16.6-37.2-26.5c-29.8-14.9-38.9-16.6-48-7.4c-8.3,8.3-7.4,11.6,3.3,17.4c7.4,4.1,22.3,14.9,33.1,24
		C1457.5,1711.6,1486.5,1707.5,1486.5,1688.4z M4246.8,1628.8c16.6-33.1,42.2-78.6,55.5-100.1c14.1-21.5,24-40.6,22.3-41.4
		c-21.5-15.7-50.5-31.5-53-29c-0.8,1.7-15.7,30.6-33.1,63.7c-16.6,33.9-39.7,76.1-50.5,93.5s-19.9,33.9-19.9,37.2
		c0,5,36.4,32.3,46.4,35.6C4215.3,1688.4,4229.4,1661.1,4246.8,1628.8z M2047.6,1578.3c16.6-14.9,19-24,15.7-51.3
		c-8.3-60.4-61.2-85.3-125.8-58.8l-28.1,12.4l-9.9-30.6c-14.1-43.9-13.2-43.9-45.5-29c-15.7,7.4-27.3,15.7-25.7,18.2
		c17.4,31.5,73.7,157.3,77.8,173.8c2.5,11.6,6.6,24,8.3,27.3C1918.5,1648.7,2025.3,1599,2047.6,1578.3z M4108.6,1594.9
		c2.5-20.7,0-22.3-25.7-22.3c-59.6,0-92.7-66.2-57.9-115.9c21.5-31.5,37.2-40.6,67-41.4c33.1,0,40.6,14.9,23.2,48.8
		c-13.2,24.8-13.2,25.7,12.4,38.1c14.1,7.4,26.5,12.4,26.5,10.8c0.8-1.7,11.6-22.3,23.2-45.5c15.7-31.5,19-45.5,12.4-51.3
		c-21.5-17.4-80.3-42.2-110.9-47.2c-100.1-15.7-165.5,131.6-89.4,202.8c19.9,19,94.4,51.3,108.4,47.2
		C4102.8,1618.1,4106.9,1606.5,4108.6,1594.9z M2190,1535.3c73.7-24.8,99.3-46.4,99.3-82.8c0-29-31.5-70.4-53.8-70.4
		c-16.6,0-15.7-15.7,3.3-66.2c16.6-44.7,14.1-47.2-28.1-32.3c-22.3,8.3-28.1,16.6-38.1,55.5c-14.9,57.9-28.1,62.9-41.4,16.6
		c-5.8-19.9-10.8-36.4-11.6-38.1c-2.5-3.3-53.8,16.6-53.8,21.5c0,2.5,13.2,44.7,29,93.5c15.7,49.7,29,97.7,29,106.8
		c0,9.1,0.8,16.6,2.5,16.6S2156.9,1546.9,2190,1535.3z M3866,1467.4c17.4-26.5,48-69.5,67.9-95.2c19-25.7,35.6-48.8,35.6-50.5
		c0-2.5-13.2-9.1-29.8-14.1c-31.5-10.8-31.5-10.8-52.1,24c-6.6,9.9-13.2,10.8-41.4,1.7c-33.1-9.9-33.9-10.8-29.8-37.2
		c5-24,3.3-28.1-14.1-32.3c-40.6-11.6-39.7-12.4-39.7,113.4v118.4l27.3,9.1C3832.1,1517.9,3832.9,1517.1,3866,1467.4z
		 M2449.1,1459.2c62.9-14.9,70.4-20.7,56.3-43c-5.8-9.1-12.4-9.1-37.2-0.8c-38.1,12.4-51.3,7.4-56.3-20.7c-5-22.3-3.3-24,37.2-32.3
		c17.4-4.1,22.3-9.9,22.3-26.5c0-17.4-3.3-20.7-14.1-15.7c-8.3,2.5-24.8,7.4-37.2,9.9c-19,3.3-23.2,0.8-28.1-17.4
		c-9.9-40.6,1.7-49.7,65.4-48.8c15.7,0,19-22.3,5.8-35.6s-145.7,24-141.5,38.9c23.2,87.7,42.2,173.8,42.2,192
		c0,15.7,3.3,22.3,10.8,19.9C2379.5,1476.5,2413.5,1467.4,2449.1,1459.2z M2636.1,1418.6c4.1-4.1,41.4-92.7,53-125
		c4.1-14.9,11.6-27.3,14.1-27.3c3.3,0,9.1,32.3,12.4,71.2l5.8,70.4l25.7-2.5c19-1.7,25.7-6.6,23.2-14.9c-1.7-6.6-9.9-57.1-19-111.7
		c-9.1-54.6-17.4-100.1-18.2-101c-1.7-1.7-13.2,0-27.3,2.5c-22.3,4.1-29,13.2-61.2,86.9c-19.9,44.7-37.2,79.5-38.9,77.8
		c-1.7-1.7-8.3-36.4-13.2-76.1c-9.1-64.6-11.6-72.8-26.5-70.4c-33.9,5-34.8,6.6-23.2,61.2c6.6,28.1,14.1,79.5,16.6,111.7l5.8,60.4
		l33.9-5.8C2617.9,1423.6,2634.5,1420.3,2636.1,1418.6z M3452.2,1410.3c34.8-13.2,45.5-86.9,15.7-111.7
		c-17.4-14.1-14.9-20.7,21.5-60.4c18.2-19,30.6-38.1,27.3-40.6c-2.5-3.3-18.2-5.8-33.9-5.8c-24,0-34.8,6.6-57.1,33.1
		c-37.2,43-54.6,43.9-47.2,2.5c2.5-17.4,5.8-34.8,6.6-38.9c1.7-11.6-53.8-21.5-57.1-9.9c-1.7,5-8.3,48-15.7,96
		c-7.4,48-14.9,95.2-18.2,105.1c-4.1,15.7-0.8,18.2,35.6,23.2c21.5,3.3,43.9,6.6,48,8.3C3391.8,1416.1,3438.1,1415.3,3452.2,1410.3z
		 M2973.8,1381.4c57.9-18.2,81.1-115,41.4-173.8c-26.5-38.9-68.7-53-140.7-45.5c-50.5,5.8-55.5,8.3-51.3,22.3
		c3.3,8.3,6.6,59.6,8.3,112.6c1.7,53.8,3.3,97.7,4.1,97.7C2838.9,1398.7,2954.8,1387.2,2973.8,1381.4z M3237,1373.9
		c0-19-2.5-19.9-38.1-17.4c-43,2.5-53-5.8-45.5-37.2c4.1-16.6,9.9-19.9,37.2-19.9c24.8,0,33.1-3.3,36.4-15.7
		c5.8-22.3,0-25.7-37.2-25.7c-30.6,0-31.5-0.8-31.5-28.1c0-33.1,6.6-37.2,57.1-29c20.7,3.3,38.9,5,39.7,4.1c0.8,0-0.8-10.8-3.3-23.2
		l-4.1-23.2h-72.8h-72l-5,97.7c-2.5,53-7.4,105.1-9.9,115c-5.8,17.4-3.3,18.2,62.9,20.7C3240.3,1396.3,3237,1396.3,3237,1373.9z
		 M3597.1,1207.5c-15.7-38.1-33.1-30.6-33.1,13.2c0,31.5,3.3,38.9,19,44.7c15.7,5.8,18.2,4.1,20.7-13.2
		C3605.3,1240.7,3602,1220.8,3597.1,1207.5z"/>
	<path class="st1" d="M2444.1,6417c-6.6-65.4-7.4-159.7-1.7-159.7c15.7,0,86.9,19,86.9,23.2c0,5-74.5,185.4-78.6,190.4
		C2449.9,6471.6,2446.6,6447.6,2444.1,6417z"/>
	<path class="st1" d="M4116,6234.1l-29.8-56.3l37.2-18.2c19.9-9.9,43-18.2,51.3-18.2c39.7,0,74.5,58.8,57.1,96
		c-6.6,16.6-60.4,53-77.8,53C4149.9,6290.3,4133.4,6264.7,4116,6234.1z"/>
	<path class="st1" d="M4010.9,6026.3c-24-49.7-25.7-59.6-16.6-71.2c16.6-20.7,53.8-37.2,81.9-37.2c38.9,0,76.1,57.9,62.9,98.5
		c-4.1,13.2-81.9,67-96.8,67C4040.7,6083.4,4026.6,6057.8,4010.9,6026.3z"/>
	<path class="st2" d="M2732.9,5763.1c-2.5-13.2-6.6-52.1-9.9-86.9l-5-63.7l-34.8-5c-70.4-11.6-202-45.5-283.9-72.8l-84.4-29
		l-51.3,69.5l-52.1,69.5l-24.8-14.9c-14.1-8.3-105.1-61.2-202.8-118.4c-96.8-56.3-178-106.8-180.4-111.7c-1.7-5,11.6-39.7,29.8-77.8
		l32.3-68.7l-145.7-143.2c-80.3-79.5-148.2-144-151.5-144c-3.3,0-38.1,14.9-77,33.1l-71.2,32.3l-81.9-138.2
		c-144-245-160.6-275.6-153.1-282.2c4.1-3.3,34.8-26.5,67.9-50.5c32.3-24,59.6-46.4,59.6-48.8c0-3.3-9.1-29.8-20.7-58.8
		c-28.1-71.2-53-160.6-73.7-264.9l-18.2-86.9l-86.1-9.9c-48-5-87.7-9.9-88.6-9.9c-1.7-0.8-2.5-112.6-2.5-248.3v-247.5l56.3-5.8
		c30.6-2.5,70.4-8.3,87.7-10.8l33.1-5.8l19-95.2c10.8-52.1,36.4-144.8,57.1-206.1c19.9-61.2,35.6-111.7,34.8-112.6
		c-1.7-0.8-31.5-23.2-66.2-48.8c-35.6-25.7-64.6-48.8-64.6-51.3c0-2.5,53-95.2,118.4-206.9c83.6-143.2,120.8-201.1,129.9-198.6
		c6.6,1.7,25.7,9.1,42.2,16.6l30.6,12.4l99.3-94.4c54.6-52.1,102.6-95.2,106.8-95.2c3.3,0,62.9,24,131.6,53
		c397.3,168.8,739.9,213.5,923.7,120c16.6-8.3,53-42.2,81.1-75.3c54.6-64.6,107.6-105.9,136.6-105.9c29.8,0,91.9,47.2,137.4,104.3
		c23.2,29,57.9,62.1,76.1,73.7c134.1,77.8,402.3,66.2,706.8-32.3c92.7-30.6,265.7-98.5,324.5-128.3l30.6-15.7l53,50.5
		c29.8,27.3,76.1,72,104.3,99.3l50.5,48l38.1-18.2c21.5-10.8,39.7-17.4,42.2-14.9c9.1,9.9,236.7,399.8,236.7,405.6
		c0,3.3-29,29-63.7,55.5c-35.6,26.5-63.7,53.8-62.9,60.4c1.7,6.6,16.6,54.6,34.8,106.8s42.2,139.9,53,194.5l19.9,99.3l32.3,5
		c18.2,3.3,57.1,8.3,88.6,11.6l55.5,5.8v246.6c0,228.4-0.8,247.5-14.1,251.6c-8.3,1.7-44.7,6.6-81.1,9.9
		c-36.4,2.5-70.4,9.1-75.3,13.2c-5.8,4.1-12.4,24.8-15.7,46.4c-9.1,63.7-43.9,195.3-74.5,281.4c-15.7,43.9-29,80.3-29,81.1
		c0,0,29.8,22.3,66.2,48.8s66.2,52.1,66.2,55.5c0,4.1-43.9,80.3-96.8,170.5c-53,89.4-105.1,178.8-116.7,198.6
		c-10.8,19-24,34.8-29.8,34.8c-5.8,0-38.9-13.2-73.7-29c-34.8-15.7-67.9-29-74.5-29c-6.6,0-21.5,12.4-33.1,27.3
		c-26.5,33.9-144.8,153.1-206.1,206.9c-26.5,22.3-48,46.4-48,52.1c0,5.8,13.2,40.6,30.6,77.8c18.2,39.7,27.3,69.5,22.3,74.5
		c-6.6,6.6-399.8,240-403.9,240c-0.8,0-24-29.8-50.5-66.2s-53.8-66.2-61.2-66.2c-6.6,0-57.1,14.9-111.7,32.3
		c-55.5,18.2-139.1,40.6-186.2,50.5c-48,9.9-89.4,19-91.9,20.7c-3.3,2.5-8.3,32.3-11.6,67.9c-3.3,35.6-8.3,72.8-10.8,83.6l-4.1,18.2
		h-242.5h-242.5L2732.9,5763.1z M3146,5437.8c480.1-50.5,917.9-316.2,1181.9-715.9c62.1-94.4,145.7-264.9,182.9-373.3
		c15.7-45.5,38.9-133.3,52.1-194.5c22.3-105.9,23.2-120.8,23.2-322c-0.8-187.1-2.5-221-19-298c-62.1-288-161.4-502.4-331.9-712.6
		c-26.5-33.9-63.7-75.3-81.1-91.9l-31.5-31.5l-66.2,25.7c-281.4,110.1-581,141.5-765.6,80.3c-74.5-24.8-115-52.1-165.5-112.6
		c-56.3-67-110.9-109.3-142.4-109.3c-35.6,0-89.4,41.4-146.5,110.1c-83.6,103.5-185.4,140.7-385.7,140.7
		c-172.2,0-331.9-30.6-522.3-101l-90.2-33.1l-27.3,26.5c-110.9,105.9-250.8,322-326.9,506.5c-178,431.2-146.5,954.3,81.1,1372.3
		c206.9,378.3,559.5,661.3,971.7,778.9c74.5,21.5,235.1,52.1,298.8,57.1C2915,5446.9,3074.8,5445.3,3146,5437.8z"/>
	<path class="st1" d="M2756.1,5359.2c-472.6-69.5-887.3-354.2-1124-772.2c-76.1-134.9-133.3-291.3-168-460.2
		c-19.9-96.8-22.3-126.6-22.3-282.2c0-133.3,3.3-192.9,14.9-256.6c53-291.3,187.1-569.4,370-768.9l38.1-42.2l65.4,24
		c191.2,68.7,347.6,99.3,512.3,99.3c202.8,0,307.1-35.6,389.8-134.1c53-62.9,104.3-107.6,133.3-114.2
		c39.7-9.9,82.8,21.5,186.2,135.7c72.8,81.1,177.1,112.6,366.7,112.6c168.8-0.8,307.9-27.3,502.4-96l71.2-24.8l32.3,34.8
		c203.6,226.8,339.4,519,379.1,821.9c77,587.7-186.2,1161.2-682.8,1487.3c-193.7,126.6-425.4,212.7-649.7,239.2
		C3071.5,5374.9,2849.7,5372.4,2756.1,5359.2z M3101.3,4572.1l17.4-17.4l19,19l19.9,19.9h412.2c440.3,0,462.7-1.7,542.1-42.2
		c48.8-24.8,107.6-86.9,135.7-144l24-49.7l2.5-189.5l2.5-190.4l-300.4-300.4c-250.8-250.8-303.8-300.4-323.6-300.4
		c-37.2,0-121.7,86.9-121.7,125.8c0,5.8,123.3,133.3,273.1,283.9l273.1,273.1v120.8c0,111.7-1.7,123.3-19,148.2
		c-9.9,15.7-31.5,35.6-47.2,44.7c-28.1,16.6-43,17.4-446.9,19.9c-370.8,2.5-419.6,4.1-432.1,15.7c-14.1,12.4-15.7,12.4-26.5-2.5
		c-10.8-14.9-27.3-15.7-259.1-19.9l-246.6-4.1L2598,3948c-1.7-509,8.3-463.5-102.6-463.5c-107.6,0-98.5-42.2-98.5,469.3v432.9
		h-182.1h-182.1v-460.2c0-331.1,2.5-470.1,9.9-493.3c5.8-20.7,20.7-41.4,38.9-54.6l28.1-22.3l410.5-2.5
		c388.2-1.7,412.2-0.8,439.5,13.2c55.5,29.8,62.1,53,64.6,226l3.3,153.9l254.1,253.3c200.3,200.3,258.2,254.1,274.8,254.1
		c15.7,0,35.6-14.9,72-53c28.1-29,51.3-58.8,51.3-66.2c0-17.4-21.5-40.6-256.6-274l-199.5-198.6l2.5-121.7
		c2.5-134.1,7.4-148.2,64.6-186.2l27.3-19h465.2c536.3,0,490.8,7.4,498.3-84.4c5.8-70.4-9.9-110.1-47.2-117.5
		c-14.9-2.5-221-5-458.5-5c-338.5,0-442.8,2.5-485.9,11.6c-61.2,13.2-108.4,34.8-146.5,66.2l-24.8,21.5l-48-29
		c-83.6-50.5-75.3-49.7-545.4-49.7h-430.4l-53,19.9c-71.2,27.3-140.7,91.9-176.3,164.7l-27.3,55.5l-1.7,583.5
		c-1.7,321.1,0.8,588.5,5,594.3c4.1,6.6,19.9,14.9,34.8,18.2c15.7,3.3,293.8,5.8,617.5,5C3082.2,4589.5,3083.1,4589.5,3101.3,4572.1
		z"/>
	<path class="st2" d="M1889.5,4529.9c-9.1-9.1-6.6-1054.5,2.5-1102.5c11.6-63.7,31.5-99.3,80.3-147.3
		c35.6-34.8,55.5-47.2,100.1-60.4c53.8-16.6,72-17.4,473.4-14.9l418,2.5l46.4,21.5c25.7,12.4,61.2,35.6,79.5,52.1l33.1,29.8
		l25.7-33.1c16.6-19.9,48-42.2,81.9-59.6l56.3-27.3h467.6H4222l2.5,43l2.5,43l-461.8,2.5l-461.8,2.5l-37.2,20.7
		c-19.9,11.6-48,36.4-62.1,56.3l-24.8,36.4l-2.5,145.7l-2.5,146.5l220.2,219.3c120.8,120.8,219.3,223.5,219.3,227.6
		c0,5-12.4,21.5-28.1,36.4l-29,28.1l-238.4-236.7l-238.4-236.7l-4.1-156.4c-4.1-153.1-4.1-156.4-27.3-190.4
		c-12.4-19-38.1-44.7-57.1-57.1l-34.8-23.2l-409.7-2.5c-281.4-1.7-420.5,0-442,6.6c-39.7,11.6-84.4,51.3-107.6,94.4
		c-18.2,33.9-18.2,34.8-18.2,538.8v504.9h235.9h235.9l2.5-448.6l1.7-449.4h45.5h45.5v451.1v451.1h255.8c163.1,0,258.2,3.3,261.5,8.3
		c2.5,5,2.5,24.8-0.8,45.5l-5,37.2h-581C2156.1,4535.7,1892,4533.2,1889.5,4529.9z"/>
	<path class="st2" d="M3176.6,4492.6l2.5-43.9l414.7-4.1l414.7-4.1l39.7-24.8c29-17.4,46.4-37.2,61.2-66.2
		c19.9-38.1,21.5-50.5,24-173.8l3.3-132.4l-274-273.1l-274-273.1l33.1-33.1l33.1-33.1l286.4,285.6l285.6,285.6l-2.5,165.5
		c-2.5,162.2-3.3,166.4-25.7,212.7c-29,58.8-91,115.9-151.5,138.2c-43.9,16.6-62.1,17.4-459.4,17.4h-413.8L3176.6,4492.6z"/>
	<path class="st1" d="M2359.7,2576.5c-172.2-21.5-379.1-79.5-560.3-158.1l-112.6-48.8l-86.9,81.9c-48,44.7-93.5,81.1-101,81.1
		s-24.8-5.8-38.9-13.2l-25.7-13.2l57.1-55.5c153.9-147.3,221-207.7,283.1-252.4l67.9-48l72.8,22.3c77.8,24,139.9,53,179.6,82.8
		c44.7,33.1,113.4,63.7,193.7,84.4c67.9,18.2,97.7,21.5,203.6,21.5c86.1,0,142.4-4.1,184.6-13.2c73.7-17.4,171.3-56.3,209.4-85.3
		c178-133.3,529.7-165.5,768.9-71.2c56.3,22.3,67.9,28.1,139.1,73.7c23.2,15.7,61.2,35.6,84.4,45.5l40.6,16.6l39.7-23.2
		c21.5-13.2,49.7-28.1,62.9-33.9c12.4-5.8,22.3-11.6,22.3-14.1c0-1.7-29-9.9-63.7-17.4c-88.6-19-159.7-48.8-243.3-101
		c-104.3-64.6-179.6-88.6-323.6-101.8c-180.4-17.4-348.5,19.9-475.1,104.3c-129.9,86.1-296.3,125-491.6,116.7
		c-158.9-7.4-280.6-44.7-403.1-124.2c-32.3-21.5-62.9-38.9-67.9-38.9c-4.1,0-9.9-3.3-12.4-7.4c-6.6-9.9,45.5-42.2,67-42.2
		c8.3,0,44.7,18.2,81.1,41.4c35.6,22.3,87.7,48.8,115,57.9c215.2,71.2,501.6,47.2,653-55.5c211.1-144,527.2-172.2,790.4-70.4
		c23.2,9.1,72.8,35.6,108.4,58.8c36.4,23.2,84.4,49.7,107.6,58.8c53.8,20.7,194.5,49.7,245,49.7c32.3,0,47.2,5.8,81.9,30.6
		c47.2,34.8,311.2,282.2,311.2,291.3c0,4.1-15.7,12.4-34.8,19.9l-34.8,14.1l-84.4-82.8c-45.5-45.5-87.7-82.8-93.5-82.8
		c-5,0-23.2,6.6-40.6,15.7c-59.6,29.8-263.2,107.6-336.9,127.5c-178.8,49.7-312,67.9-438.7,61.2c-161.4-8.3-246.6-43.9-317-131.6
		c-65.4-81.9-101-105.9-153.9-105.9c-44.7,0-86.9,29-149,104.3c-64.6,77.8-123.3,107.6-245,127.5
		C2544.2,2581.5,2413.5,2583.2,2359.7,2576.5z M3605.3,2433.3c0-21.5-201.1-53-301.3-47.2c-40.6,2.5-77,8.3-81.1,12.4
		c-5,5,14.9,13.2,53,20.7c33.1,7.4,67.9,14.9,77,16.6C3386.8,2443.3,3605.3,2441.6,3605.3,2433.3z M3789.9,2394.4
		c21.5-7.4,38.9-16.6,38.9-19c0-2.5-21.5-16.6-47.2-31.5c-26.5-14.9-65.4-38.1-86.9-51.3c-155.6-96-478.4-108.4-664.6-25.7
		c-33.9,14.9-49.7,33.9-29,33.9c5,0,24,9.9,42.2,22.3c32.3,21.5,35.6,21.5,80.3,12.4c25.7-5,85.3-14.1,131.6-19
		c138.2-15.7,317,11.6,433.7,65.4c29,14.1,54.6,25.7,57.1,25.7C3748.5,2408.5,3767.6,2401.9,3789.9,2394.4z"/>
	<path class="st1" d="M2300.9,2060.1c-77.8-17.4-170.5-50.5-174.6-62.1c-1.7-4.1,14.9-14.9,36.4-23.2c38.1-15.7,38.1-15.7,106.8,2.5
		c222.6,57.9,459.4,29,621.6-76.1c73.7-48,85.3-53.8,152.3-76.1c52.1-18.2,62.9-19,133.3-11.6c73.7,7.4,223.5,30.6,228.4,35.6
		c0.8,1.7-47.2,5-107.6,7.4c-162.2,7.4-258.2,35.6-365,107.6c-63.7,43-144,75.3-240.9,96C2586.4,2083.2,2399.4,2083.2,2300.9,2060.1
		z"/>
	<path class="st1" d="M3845.4,2017c-67-29-144.8-77.8-107.6-67.9c11.6,3.3,62.1,25.7,111.7,49.7
		C3948.8,2046.8,3945.5,2060.9,3845.4,2017z"/>
	<path class="st1" d="M2409.3,1896.2c-21.5-5-9.1-9.9,82.8-31.5c154.8-38.1,393.1-70.4,393.1-53.8c0,10.8-100.1,48-182.1,67.9
		C2627.8,1897,2452.4,1907.8,2409.3,1896.2z"/>
	<path class="st1" d="M5307,2991.2c-24-23.2-16.6-42.2,21.5-51.3c19-5,37.2-7.4,41.4-5c13.2,8.3,5.8,43.9-11.6,56.3
		C5335.2,3007.8,5322.8,3007.8,5307,2991.2z"/>
	<path class="st1" d="M1186,2053.4c-33.9-21.5-34.8-24-18.2-42.2c14.9-16.6,14.9-16.6,33.9,14.1
		C1230.7,2073.3,1227.4,2079.9,1186,2053.4z"/>
	<path class="st1" d="M1378,1922.7c-34.8-41.4-34.8-42.2-12.4-56.3c19.9-13.2,23.2-13.2,42.2-0.8c22.3,14.9,27.3,44.7,10.8,61.2
		C1404.5,1940.9,1392.1,1939.2,1378,1922.7z"/>
	<path class="st1" d="M4366.8,1739.7c-18.2-14.1-18.2-15.7-5-40.6c18.2-35.6,28.1-39.7,47.2-22.3c20.7,18.2,17.4,51.3-5.8,67
		C4387.5,1753.8,4383.4,1753,4366.8,1739.7z"/>
	<path class="st1" d="M1728.1,1636.3l-27.3-28.1l20.7-9.1c11.6-5,22.3-6.6,24.8-3.3c5,9.1,15.7,67.9,11.6,67.9
		C1756.3,1663.6,1742.2,1651.2,1728.1,1636.3z"/>
	<path class="st1" d="M1945,1551c-14.9-39.7-9.9-52.1,22.3-53c30.6,0,53.8,53.8,30.6,72C1969,1592.4,1959.1,1588.3,1945,1551z"/>
	<path class="st1" d="M2166.8,1470.7c-14.1-38.9-12.4-44.7,12.4-50.5c35.6-9.1,65.4,38.9,39.7,64.6
		C2197.4,1506.3,2177.6,1500.5,2166.8,1470.7z"/>
	<path class="st1" d="M3806.5,1413.6c1.7-26.5,6.6-36.4,17.4-38.1c27.3-5.8,32.3,11.6,11.6,43c-9.9,16.6-21.5,29.8-24.8,29.8
		C3807.3,1448.4,3805.6,1432.7,3806.5,1413.6z"/>
	<path class="st1" d="M3362.8,1368.1c-1.7-3.3-1.7-20.7,0-37.2c3.3-25.7,7.4-31.5,22.3-31.5c29,0,39.7,12.4,36.4,42.2
		c-2.5,24.8-5.8,28.1-29,30.6C3378.5,1373.9,3365.3,1371.4,3362.8,1368.1z"/>
	<path class="st1" d="M2890.2,1287c-3.3-38.9-3.3-74.5-0.8-78.6c7.4-12.4,58.8-9.9,69.5,3.3c5.8,6.6,12.4,32.3,14.9,57.1
		c4.1,41.4,2.5,48-16.6,67c-11.6,11.6-30.6,21.5-41.4,21.5C2896.8,1357.4,2895.2,1354,2890.2,1287z"/>
</g>
</svg>
